<?xml version="1.0" encoding="utf-8" standalone="no"?>
<!DOCTYPE svg PUBLIC "-//W3C//DTD SVG 1.1//EN"
  "http://www.w3.org/Graphics/SVG/1.1/DTD/svg11.dtd">
<!-- Created with matplotlib (https://matplotlib.org/) -->
<svg height="188.39952pt" version="1.1" viewBox="0 0 512.39952 188.39952" width="512.39952pt" xmlns="http://www.w3.org/2000/svg" xmlns:xlink="http://www.w3.org/1999/xlink">
 <defs>
  <style type="text/css">
*{stroke-linecap:butt;stroke-linejoin:round;}
  </style>
 </defs>
 <g id="figure_1">
  <g id="patch_1">
   <path d="M 0 188.39952 
L 512.39952 188.39952 
L 512.39952 0 
L 0 0 
z
" style="fill:#ffffff;"/>
  </g>
  <g id="axes_1">
   <g id="patch_2">
    <path d="M 42.274219 153.182333 
L 505.19952 153.182333 
L 505.19952 27.427366 
L 42.274219 27.427366 
z
" style="fill:#ffffff;"/>
   </g>
   <g id="matplotlib.axis_1">
    <g id="xtick_1">
     <g id="line2d_1">
      <path clip-path="url(#pf1c25f0593)" d="M 42.274219 153.182333 
L 42.274219 27.427366 
" style="fill:none;stroke:#cccccc;stroke-linecap:round;stroke-opacity:0.1;stroke-width:0.5;"/>
     </g>
     <g id="text_1">
      <!-- 0 -->
      <defs>
       <path d="M 31.78125 66.40625 
Q 24.171875 66.40625 20.328125 58.90625 
Q 16.5 51.421875 16.5 36.375 
Q 16.5 21.390625 20.328125 13.890625 
Q 24.171875 6.390625 31.78125 6.390625 
Q 39.453125 6.390625 43.28125 13.890625 
Q 47.125 21.390625 47.125 36.375 
Q 47.125 51.421875 43.28125 58.90625 
Q 39.453125 66.40625 31.78125 66.40625 
z
M 31.78125 74.21875 
Q 44.046875 74.21875 50.515625 64.515625 
Q 56.984375 54.828125 56.984375 36.375 
Q 56.984375 17.96875 50.515625 8.265625 
Q 44.046875 -1.421875 31.78125 -1.421875 
Q 19.53125 -1.421875 13.0625 8.265625 
Q 6.59375 17.96875 6.59375 36.375 
Q 6.59375 54.828125 13.0625 64.515625 
Q 19.53125 74.21875 31.78125 74.21875 
z
" id="DejaVuSans-48"/>
      </defs>
      <g style="fill:#262626;" transform="translate(39.888281 168.381161)scale(0.075 -0.075)">
       <use xlink:href="#DejaVuSans-48"/>
      </g>
     </g>
    </g>
    <g id="xtick_2">
     <g id="line2d_2">
      <path clip-path="url(#pf1c25f0593)" d="M 126.826785 153.182333 
L 126.826785 27.427366 
" style="fill:none;stroke:#cccccc;stroke-linecap:round;stroke-opacity:0.1;stroke-width:0.5;"/>
     </g>
     <g id="text_2">
      <!-- 200 -->
      <defs>
       <path d="M 19.1875 8.296875 
L 53.609375 8.296875 
L 53.609375 0 
L 7.328125 0 
L 7.328125 8.296875 
Q 12.9375 14.109375 22.625 23.890625 
Q 32.328125 33.6875 34.8125 36.53125 
Q 39.546875 41.84375 41.421875 45.53125 
Q 43.3125 49.21875 43.3125 52.78125 
Q 43.3125 58.59375 39.234375 62.25 
Q 35.15625 65.921875 28.609375 65.921875 
Q 23.96875 65.921875 18.8125 64.3125 
Q 13.671875 62.703125 7.8125 59.421875 
L 7.8125 69.390625 
Q 13.765625 71.78125 18.9375 73 
Q 24.125 74.21875 28.421875 74.21875 
Q 39.75 74.21875 46.484375 68.546875 
Q 53.21875 62.890625 53.21875 53.421875 
Q 53.21875 48.921875 51.53125 44.890625 
Q 49.859375 40.875 45.40625 35.40625 
Q 44.1875 33.984375 37.640625 27.21875 
Q 31.109375 20.453125 19.1875 8.296875 
z
" id="DejaVuSans-50"/>
      </defs>
      <g style="fill:#262626;" transform="translate(119.668973 168.381161)scale(0.075 -0.075)">
       <use xlink:href="#DejaVuSans-50"/>
       <use x="63.623047" xlink:href="#DejaVuSans-48"/>
       <use x="127.246094" xlink:href="#DejaVuSans-48"/>
      </g>
     </g>
    </g>
    <g id="xtick_3">
     <g id="line2d_3">
      <path clip-path="url(#pf1c25f0593)" d="M 211.379352 153.182333 
L 211.379352 27.427366 
" style="fill:none;stroke:#cccccc;stroke-linecap:round;stroke-opacity:0.1;stroke-width:0.5;"/>
     </g>
     <g id="text_3">
      <!-- 400 -->
      <defs>
       <path d="M 37.796875 64.3125 
L 12.890625 25.390625 
L 37.796875 25.390625 
z
M 35.203125 72.90625 
L 47.609375 72.90625 
L 47.609375 25.390625 
L 58.015625 25.390625 
L 58.015625 17.1875 
L 47.609375 17.1875 
L 47.609375 0 
L 37.796875 0 
L 37.796875 17.1875 
L 4.890625 17.1875 
L 4.890625 26.703125 
z
" id="DejaVuSans-52"/>
      </defs>
      <g style="fill:#262626;" transform="translate(204.221539 168.381161)scale(0.075 -0.075)">
       <use xlink:href="#DejaVuSans-52"/>
       <use x="63.623047" xlink:href="#DejaVuSans-48"/>
       <use x="127.246094" xlink:href="#DejaVuSans-48"/>
      </g>
     </g>
    </g>
    <g id="xtick_4">
     <g id="line2d_4">
      <path clip-path="url(#pf1c25f0593)" d="M 295.931918 153.182333 
L 295.931918 27.427366 
" style="fill:none;stroke:#cccccc;stroke-linecap:round;stroke-opacity:0.1;stroke-width:0.5;"/>
     </g>
     <g id="text_4">
      <!-- 600 -->
      <defs>
       <path d="M 33.015625 40.375 
Q 26.375 40.375 22.484375 35.828125 
Q 18.609375 31.296875 18.609375 23.390625 
Q 18.609375 15.53125 22.484375 10.953125 
Q 26.375 6.390625 33.015625 6.390625 
Q 39.65625 6.390625 43.53125 10.953125 
Q 47.40625 15.53125 47.40625 23.390625 
Q 47.40625 31.296875 43.53125 35.828125 
Q 39.65625 40.375 33.015625 40.375 
z
M 52.59375 71.296875 
L 52.59375 62.3125 
Q 48.875 64.0625 45.09375 64.984375 
Q 41.3125 65.921875 37.59375 65.921875 
Q 27.828125 65.921875 22.671875 59.328125 
Q 17.53125 52.734375 16.796875 39.40625 
Q 19.671875 43.65625 24.015625 45.921875 
Q 28.375 48.1875 33.59375 48.1875 
Q 44.578125 48.1875 50.953125 41.515625 
Q 57.328125 34.859375 57.328125 23.390625 
Q 57.328125 12.15625 50.6875 5.359375 
Q 44.046875 -1.421875 33.015625 -1.421875 
Q 20.359375 -1.421875 13.671875 8.265625 
Q 6.984375 17.96875 6.984375 36.375 
Q 6.984375 53.65625 15.1875 63.9375 
Q 23.390625 74.21875 37.203125 74.21875 
Q 40.921875 74.21875 44.703125 73.484375 
Q 48.484375 72.75 52.59375 71.296875 
z
" id="DejaVuSans-54"/>
      </defs>
      <g style="fill:#262626;" transform="translate(288.774106 168.381161)scale(0.075 -0.075)">
       <use xlink:href="#DejaVuSans-54"/>
       <use x="63.623047" xlink:href="#DejaVuSans-48"/>
       <use x="127.246094" xlink:href="#DejaVuSans-48"/>
      </g>
     </g>
    </g>
    <g id="xtick_5">
     <g id="line2d_5">
      <path clip-path="url(#pf1c25f0593)" d="M 380.484485 153.182333 
L 380.484485 27.427366 
" style="fill:none;stroke:#cccccc;stroke-linecap:round;stroke-opacity:0.1;stroke-width:0.5;"/>
     </g>
     <g id="text_5">
      <!-- 800 -->
      <defs>
       <path d="M 31.78125 34.625 
Q 24.75 34.625 20.71875 30.859375 
Q 16.703125 27.09375 16.703125 20.515625 
Q 16.703125 13.921875 20.71875 10.15625 
Q 24.75 6.390625 31.78125 6.390625 
Q 38.8125 6.390625 42.859375 10.171875 
Q 46.921875 13.96875 46.921875 20.515625 
Q 46.921875 27.09375 42.890625 30.859375 
Q 38.875 34.625 31.78125 34.625 
z
M 21.921875 38.8125 
Q 15.578125 40.375 12.03125 44.71875 
Q 8.5 49.078125 8.5 55.328125 
Q 8.5 64.0625 14.71875 69.140625 
Q 20.953125 74.21875 31.78125 74.21875 
Q 42.671875 74.21875 48.875 69.140625 
Q 55.078125 64.0625 55.078125 55.328125 
Q 55.078125 49.078125 51.53125 44.71875 
Q 48 40.375 41.703125 38.8125 
Q 48.828125 37.15625 52.796875 32.3125 
Q 56.78125 27.484375 56.78125 20.515625 
Q 56.78125 9.90625 50.3125 4.234375 
Q 43.84375 -1.421875 31.78125 -1.421875 
Q 19.734375 -1.421875 13.25 4.234375 
Q 6.78125 9.90625 6.78125 20.515625 
Q 6.78125 27.484375 10.78125 32.3125 
Q 14.796875 37.15625 21.921875 38.8125 
z
M 18.3125 54.390625 
Q 18.3125 48.734375 21.84375 45.5625 
Q 25.390625 42.390625 31.78125 42.390625 
Q 38.140625 42.390625 41.71875 45.5625 
Q 45.3125 48.734375 45.3125 54.390625 
Q 45.3125 60.0625 41.71875 63.234375 
Q 38.140625 66.40625 31.78125 66.40625 
Q 25.390625 66.40625 21.84375 63.234375 
Q 18.3125 60.0625 18.3125 54.390625 
z
" id="DejaVuSans-56"/>
      </defs>
      <g style="fill:#262626;" transform="translate(373.326672 168.381161)scale(0.075 -0.075)">
       <use xlink:href="#DejaVuSans-56"/>
       <use x="63.623047" xlink:href="#DejaVuSans-48"/>
       <use x="127.246094" xlink:href="#DejaVuSans-48"/>
      </g>
     </g>
    </g>
    <g id="xtick_6">
     <g id="line2d_6">
      <path clip-path="url(#pf1c25f0593)" d="M 465.037051 153.182333 
L 465.037051 27.427366 
" style="fill:none;stroke:#cccccc;stroke-linecap:round;stroke-opacity:0.1;stroke-width:0.5;"/>
     </g>
     <g id="text_6">
      <!-- 1000 -->
      <defs>
       <path d="M 12.40625 8.296875 
L 28.515625 8.296875 
L 28.515625 63.921875 
L 10.984375 60.40625 
L 10.984375 69.390625 
L 28.421875 72.90625 
L 38.28125 72.90625 
L 38.28125 8.296875 
L 54.390625 8.296875 
L 54.390625 0 
L 12.40625 0 
z
" id="DejaVuSans-49"/>
      </defs>
      <g style="fill:#262626;" transform="translate(455.493301 168.381161)scale(0.075 -0.075)">
       <use xlink:href="#DejaVuSans-49"/>
       <use x="63.623047" xlink:href="#DejaVuSans-48"/>
       <use x="127.246094" xlink:href="#DejaVuSans-48"/>
       <use x="190.869141" xlink:href="#DejaVuSans-48"/>
      </g>
     </g>
    </g>
    <g id="text_7">
     <!-- Sample Number -->
     <defs>
      <path d="M 53.515625 70.515625 
L 53.515625 60.890625 
Q 47.90625 63.578125 42.921875 64.890625 
Q 37.9375 66.21875 33.296875 66.21875 
Q 25.25 66.21875 20.875 63.09375 
Q 16.5 59.96875 16.5 54.203125 
Q 16.5 49.359375 19.40625 46.890625 
Q 22.3125 44.4375 30.421875 42.921875 
L 36.375 41.703125 
Q 47.40625 39.59375 52.65625 34.296875 
Q 57.90625 29 57.90625 20.125 
Q 57.90625 9.515625 50.796875 4.046875 
Q 43.703125 -1.421875 29.984375 -1.421875 
Q 24.8125 -1.421875 18.96875 -0.25 
Q 13.140625 0.921875 6.890625 3.21875 
L 6.890625 13.375 
Q 12.890625 10.015625 18.65625 8.296875 
Q 24.421875 6.59375 29.984375 6.59375 
Q 38.421875 6.59375 43.015625 9.90625 
Q 47.609375 13.234375 47.609375 19.390625 
Q 47.609375 24.75 44.3125 27.78125 
Q 41.015625 30.8125 33.5 32.328125 
L 27.484375 33.5 
Q 16.453125 35.6875 11.515625 40.375 
Q 6.59375 45.0625 6.59375 53.421875 
Q 6.59375 63.09375 13.40625 68.65625 
Q 20.21875 74.21875 32.171875 74.21875 
Q 37.3125 74.21875 42.625 73.28125 
Q 47.953125 72.359375 53.515625 70.515625 
z
" id="DejaVuSans-83"/>
      <path d="M 34.28125 27.484375 
Q 23.390625 27.484375 19.1875 25 
Q 14.984375 22.515625 14.984375 16.5 
Q 14.984375 11.71875 18.140625 8.90625 
Q 21.296875 6.109375 26.703125 6.109375 
Q 34.1875 6.109375 38.703125 11.40625 
Q 43.21875 16.703125 43.21875 25.484375 
L 43.21875 27.484375 
z
M 52.203125 31.203125 
L 52.203125 0 
L 43.21875 0 
L 43.21875 8.296875 
Q 40.140625 3.328125 35.546875 0.953125 
Q 30.953125 -1.421875 24.3125 -1.421875 
Q 15.921875 -1.421875 10.953125 3.296875 
Q 6 8.015625 6 15.921875 
Q 6 25.140625 12.171875 29.828125 
Q 18.359375 34.515625 30.609375 34.515625 
L 43.21875 34.515625 
L 43.21875 35.40625 
Q 43.21875 41.609375 39.140625 45 
Q 35.0625 48.390625 27.6875 48.390625 
Q 23 48.390625 18.546875 47.265625 
Q 14.109375 46.140625 10.015625 43.890625 
L 10.015625 52.203125 
Q 14.9375 54.109375 19.578125 55.046875 
Q 24.21875 56 28.609375 56 
Q 40.484375 56 46.34375 49.84375 
Q 52.203125 43.703125 52.203125 31.203125 
z
" id="DejaVuSans-97"/>
      <path d="M 52 44.1875 
Q 55.375 50.25 60.0625 53.125 
Q 64.75 56 71.09375 56 
Q 79.640625 56 84.28125 50.015625 
Q 88.921875 44.046875 88.921875 33.015625 
L 88.921875 0 
L 79.890625 0 
L 79.890625 32.71875 
Q 79.890625 40.578125 77.09375 44.375 
Q 74.3125 48.1875 68.609375 48.1875 
Q 61.625 48.1875 57.5625 43.546875 
Q 53.515625 38.921875 53.515625 30.90625 
L 53.515625 0 
L 44.484375 0 
L 44.484375 32.71875 
Q 44.484375 40.625 41.703125 44.40625 
Q 38.921875 48.1875 33.109375 48.1875 
Q 26.21875 48.1875 22.15625 43.53125 
Q 18.109375 38.875 18.109375 30.90625 
L 18.109375 0 
L 9.078125 0 
L 9.078125 54.6875 
L 18.109375 54.6875 
L 18.109375 46.1875 
Q 21.1875 51.21875 25.484375 53.609375 
Q 29.78125 56 35.6875 56 
Q 41.65625 56 45.828125 52.96875 
Q 50 49.953125 52 44.1875 
z
" id="DejaVuSans-109"/>
      <path d="M 18.109375 8.203125 
L 18.109375 -20.796875 
L 9.078125 -20.796875 
L 9.078125 54.6875 
L 18.109375 54.6875 
L 18.109375 46.390625 
Q 20.953125 51.265625 25.265625 53.625 
Q 29.59375 56 35.59375 56 
Q 45.5625 56 51.78125 48.09375 
Q 58.015625 40.1875 58.015625 27.296875 
Q 58.015625 14.40625 51.78125 6.484375 
Q 45.5625 -1.421875 35.59375 -1.421875 
Q 29.59375 -1.421875 25.265625 0.953125 
Q 20.953125 3.328125 18.109375 8.203125 
z
M 48.6875 27.296875 
Q 48.6875 37.203125 44.609375 42.84375 
Q 40.53125 48.484375 33.40625 48.484375 
Q 26.265625 48.484375 22.1875 42.84375 
Q 18.109375 37.203125 18.109375 27.296875 
Q 18.109375 17.390625 22.1875 11.75 
Q 26.265625 6.109375 33.40625 6.109375 
Q 40.53125 6.109375 44.609375 11.75 
Q 48.6875 17.390625 48.6875 27.296875 
z
" id="DejaVuSans-112"/>
      <path d="M 9.421875 75.984375 
L 18.40625 75.984375 
L 18.40625 0 
L 9.421875 0 
z
" id="DejaVuSans-108"/>
      <path d="M 56.203125 29.59375 
L 56.203125 25.203125 
L 14.890625 25.203125 
Q 15.484375 15.921875 20.484375 11.0625 
Q 25.484375 6.203125 34.421875 6.203125 
Q 39.59375 6.203125 44.453125 7.46875 
Q 49.3125 8.734375 54.109375 11.28125 
L 54.109375 2.78125 
Q 49.265625 0.734375 44.1875 -0.34375 
Q 39.109375 -1.421875 33.890625 -1.421875 
Q 20.796875 -1.421875 13.15625 6.1875 
Q 5.515625 13.8125 5.515625 26.8125 
Q 5.515625 40.234375 12.765625 48.109375 
Q 20.015625 56 32.328125 56 
Q 43.359375 56 49.78125 48.890625 
Q 56.203125 41.796875 56.203125 29.59375 
z
M 47.21875 32.234375 
Q 47.125 39.59375 43.09375 43.984375 
Q 39.0625 48.390625 32.421875 48.390625 
Q 24.90625 48.390625 20.390625 44.140625 
Q 15.875 39.890625 15.1875 32.171875 
z
" id="DejaVuSans-101"/>
      <path id="DejaVuSans-32"/>
      <path d="M 9.8125 72.90625 
L 23.09375 72.90625 
L 55.421875 11.921875 
L 55.421875 72.90625 
L 64.984375 72.90625 
L 64.984375 0 
L 51.703125 0 
L 19.390625 60.984375 
L 19.390625 0 
L 9.8125 0 
z
" id="DejaVuSans-78"/>
      <path d="M 8.5 21.578125 
L 8.5 54.6875 
L 17.484375 54.6875 
L 17.484375 21.921875 
Q 17.484375 14.15625 20.5 10.265625 
Q 23.53125 6.390625 29.59375 6.390625 
Q 36.859375 6.390625 41.078125 11.03125 
Q 45.3125 15.671875 45.3125 23.6875 
L 45.3125 54.6875 
L 54.296875 54.6875 
L 54.296875 0 
L 45.3125 0 
L 45.3125 8.40625 
Q 42.046875 3.421875 37.71875 1 
Q 33.40625 -1.421875 27.6875 -1.421875 
Q 18.265625 -1.421875 13.375 4.4375 
Q 8.5 10.296875 8.5 21.578125 
z
M 31.109375 56 
z
" id="DejaVuSans-117"/>
      <path d="M 48.6875 27.296875 
Q 48.6875 37.203125 44.609375 42.84375 
Q 40.53125 48.484375 33.40625 48.484375 
Q 26.265625 48.484375 22.1875 42.84375 
Q 18.109375 37.203125 18.109375 27.296875 
Q 18.109375 17.390625 22.1875 11.75 
Q 26.265625 6.109375 33.40625 6.109375 
Q 40.53125 6.109375 44.609375 11.75 
Q 48.6875 17.390625 48.6875 27.296875 
z
M 18.109375 46.390625 
Q 20.953125 51.265625 25.265625 53.625 
Q 29.59375 56 35.59375 56 
Q 45.5625 56 51.78125 48.09375 
Q 58.015625 40.1875 58.015625 27.296875 
Q 58.015625 14.40625 51.78125 6.484375 
Q 45.5625 -1.421875 35.59375 -1.421875 
Q 29.59375 -1.421875 25.265625 0.953125 
Q 20.953125 3.328125 18.109375 8.203125 
L 18.109375 0 
L 9.078125 0 
L 9.078125 75.984375 
L 18.109375 75.984375 
z
" id="DejaVuSans-98"/>
      <path d="M 41.109375 46.296875 
Q 39.59375 47.171875 37.8125 47.578125 
Q 36.03125 48 33.890625 48 
Q 26.265625 48 22.1875 43.046875 
Q 18.109375 38.09375 18.109375 28.8125 
L 18.109375 0 
L 9.078125 0 
L 9.078125 54.6875 
L 18.109375 54.6875 
L 18.109375 46.1875 
Q 20.953125 51.171875 25.484375 53.578125 
Q 30.03125 56 36.53125 56 
Q 37.453125 56 38.578125 55.875 
Q 39.703125 55.765625 41.0625 55.515625 
z
" id="DejaVuSans-114"/>
     </defs>
     <g style="fill:#262626;" transform="translate(243.419291 179.639754)scale(0.075 -0.075)">
      <use xlink:href="#DejaVuSans-83"/>
      <use x="63.476562" xlink:href="#DejaVuSans-97"/>
      <use x="124.755859" xlink:href="#DejaVuSans-109"/>
      <use x="222.167969" xlink:href="#DejaVuSans-112"/>
      <use x="285.644531" xlink:href="#DejaVuSans-108"/>
      <use x="313.427734" xlink:href="#DejaVuSans-101"/>
      <use x="374.951172" xlink:href="#DejaVuSans-32"/>
      <use x="406.738281" xlink:href="#DejaVuSans-78"/>
      <use x="481.542969" xlink:href="#DejaVuSans-117"/>
      <use x="544.921875" xlink:href="#DejaVuSans-109"/>
      <use x="642.333984" xlink:href="#DejaVuSans-98"/>
      <use x="705.810547" xlink:href="#DejaVuSans-101"/>
      <use x="767.333984" xlink:href="#DejaVuSans-114"/>
     </g>
    </g>
   </g>
   <g id="matplotlib.axis_2">
    <g id="ytick_1">
     <g id="line2d_7">
      <path clip-path="url(#pf1c25f0593)" d="M 42.274219 134.421728 
L 505.19952 134.421728 
" style="fill:none;stroke:#cccccc;stroke-linecap:round;stroke-opacity:0.1;stroke-width:0.5;"/>
     </g>
     <g id="text_8">
      <!-- 20 -->
      <g style="fill:#262626;" transform="translate(23.230469 137.271142)scale(0.075 -0.075)">
       <use xlink:href="#DejaVuSans-50"/>
       <use x="63.623047" xlink:href="#DejaVuSans-48"/>
      </g>
     </g>
    </g>
    <g id="ytick_2">
     <g id="line2d_8">
      <path clip-path="url(#pf1c25f0593)" d="M 42.274219 108.728789 
L 505.19952 108.728789 
" style="fill:none;stroke:#cccccc;stroke-linecap:round;stroke-opacity:0.1;stroke-width:0.5;"/>
     </g>
     <g id="text_9">
      <!-- 40 -->
      <g style="fill:#262626;" transform="translate(23.230469 111.578203)scale(0.075 -0.075)">
       <use xlink:href="#DejaVuSans-52"/>
       <use x="63.623047" xlink:href="#DejaVuSans-48"/>
      </g>
     </g>
    </g>
    <g id="ytick_3">
     <g id="line2d_9">
      <path clip-path="url(#pf1c25f0593)" d="M 42.274219 83.03585 
L 505.19952 83.03585 
" style="fill:none;stroke:#cccccc;stroke-linecap:round;stroke-opacity:0.1;stroke-width:0.5;"/>
     </g>
     <g id="text_10">
      <!-- 60 -->
      <g style="fill:#262626;" transform="translate(23.230469 85.885264)scale(0.075 -0.075)">
       <use xlink:href="#DejaVuSans-54"/>
       <use x="63.623047" xlink:href="#DejaVuSans-48"/>
      </g>
     </g>
    </g>
    <g id="ytick_4">
     <g id="line2d_10">
      <path clip-path="url(#pf1c25f0593)" d="M 42.274219 57.342911 
L 505.19952 57.342911 
" style="fill:none;stroke:#cccccc;stroke-linecap:round;stroke-opacity:0.1;stroke-width:0.5;"/>
     </g>
     <g id="text_11">
      <!-- 80 -->
      <g style="fill:#262626;" transform="translate(23.230469 60.192325)scale(0.075 -0.075)">
       <use xlink:href="#DejaVuSans-56"/>
       <use x="63.623047" xlink:href="#DejaVuSans-48"/>
      </g>
     </g>
    </g>
    <g id="ytick_5">
     <g id="line2d_11">
      <path clip-path="url(#pf1c25f0593)" d="M 42.274219 31.649972 
L 505.19952 31.649972 
" style="fill:none;stroke:#cccccc;stroke-linecap:round;stroke-opacity:0.1;stroke-width:0.5;"/>
     </g>
     <g id="text_12">
      <!-- 100 -->
      <g style="fill:#262626;" transform="translate(18.458594 34.499386)scale(0.075 -0.075)">
       <use xlink:href="#DejaVuSans-49"/>
       <use x="63.623047" xlink:href="#DejaVuSans-48"/>
       <use x="127.246094" xlink:href="#DejaVuSans-48"/>
      </g>
     </g>
    </g>
    <g id="text_13">
     <!-- KL-Divergence Score -->
     <defs>
      <path d="M 9.8125 72.90625 
L 19.671875 72.90625 
L 19.671875 42.09375 
L 52.390625 72.90625 
L 65.09375 72.90625 
L 28.90625 38.921875 
L 67.671875 0 
L 54.6875 0 
L 19.671875 35.109375 
L 19.671875 0 
L 9.8125 0 
z
" id="DejaVuSans-75"/>
      <path d="M 9.8125 72.90625 
L 19.671875 72.90625 
L 19.671875 8.296875 
L 55.171875 8.296875 
L 55.171875 0 
L 9.8125 0 
z
" id="DejaVuSans-76"/>
      <path d="M 4.890625 31.390625 
L 31.203125 31.390625 
L 31.203125 23.390625 
L 4.890625 23.390625 
z
" id="DejaVuSans-45"/>
      <path d="M 19.671875 64.796875 
L 19.671875 8.109375 
L 31.59375 8.109375 
Q 46.6875 8.109375 53.6875 14.9375 
Q 60.6875 21.78125 60.6875 36.53125 
Q 60.6875 51.171875 53.6875 57.984375 
Q 46.6875 64.796875 31.59375 64.796875 
z
M 9.8125 72.90625 
L 30.078125 72.90625 
Q 51.265625 72.90625 61.171875 64.09375 
Q 71.09375 55.28125 71.09375 36.53125 
Q 71.09375 17.671875 61.125 8.828125 
Q 51.171875 0 30.078125 0 
L 9.8125 0 
z
" id="DejaVuSans-68"/>
      <path d="M 9.421875 54.6875 
L 18.40625 54.6875 
L 18.40625 0 
L 9.421875 0 
z
M 9.421875 75.984375 
L 18.40625 75.984375 
L 18.40625 64.59375 
L 9.421875 64.59375 
z
" id="DejaVuSans-105"/>
      <path d="M 2.984375 54.6875 
L 12.5 54.6875 
L 29.59375 8.796875 
L 46.6875 54.6875 
L 56.203125 54.6875 
L 35.6875 0 
L 23.484375 0 
z
" id="DejaVuSans-118"/>
      <path d="M 45.40625 27.984375 
Q 45.40625 37.75 41.375 43.109375 
Q 37.359375 48.484375 30.078125 48.484375 
Q 22.859375 48.484375 18.828125 43.109375 
Q 14.796875 37.75 14.796875 27.984375 
Q 14.796875 18.265625 18.828125 12.890625 
Q 22.859375 7.515625 30.078125 7.515625 
Q 37.359375 7.515625 41.375 12.890625 
Q 45.40625 18.265625 45.40625 27.984375 
z
M 54.390625 6.78125 
Q 54.390625 -7.171875 48.1875 -13.984375 
Q 42 -20.796875 29.203125 -20.796875 
Q 24.46875 -20.796875 20.265625 -20.09375 
Q 16.0625 -19.390625 12.109375 -17.921875 
L 12.109375 -9.1875 
Q 16.0625 -11.328125 19.921875 -12.34375 
Q 23.78125 -13.375 27.78125 -13.375 
Q 36.625 -13.375 41.015625 -8.765625 
Q 45.40625 -4.15625 45.40625 5.171875 
L 45.40625 9.625 
Q 42.625 4.78125 38.28125 2.390625 
Q 33.9375 0 27.875 0 
Q 17.828125 0 11.671875 7.65625 
Q 5.515625 15.328125 5.515625 27.984375 
Q 5.515625 40.671875 11.671875 48.328125 
Q 17.828125 56 27.875 56 
Q 33.9375 56 38.28125 53.609375 
Q 42.625 51.21875 45.40625 46.390625 
L 45.40625 54.6875 
L 54.390625 54.6875 
z
" id="DejaVuSans-103"/>
      <path d="M 54.890625 33.015625 
L 54.890625 0 
L 45.90625 0 
L 45.90625 32.71875 
Q 45.90625 40.484375 42.875 44.328125 
Q 39.84375 48.1875 33.796875 48.1875 
Q 26.515625 48.1875 22.3125 43.546875 
Q 18.109375 38.921875 18.109375 30.90625 
L 18.109375 0 
L 9.078125 0 
L 9.078125 54.6875 
L 18.109375 54.6875 
L 18.109375 46.1875 
Q 21.34375 51.125 25.703125 53.5625 
Q 30.078125 56 35.796875 56 
Q 45.21875 56 50.046875 50.171875 
Q 54.890625 44.34375 54.890625 33.015625 
z
" id="DejaVuSans-110"/>
      <path d="M 48.78125 52.59375 
L 48.78125 44.1875 
Q 44.96875 46.296875 41.140625 47.34375 
Q 37.3125 48.390625 33.40625 48.390625 
Q 24.65625 48.390625 19.8125 42.84375 
Q 14.984375 37.3125 14.984375 27.296875 
Q 14.984375 17.28125 19.8125 11.734375 
Q 24.65625 6.203125 33.40625 6.203125 
Q 37.3125 6.203125 41.140625 7.25 
Q 44.96875 8.296875 48.78125 10.40625 
L 48.78125 2.09375 
Q 45.015625 0.34375 40.984375 -0.53125 
Q 36.96875 -1.421875 32.421875 -1.421875 
Q 20.0625 -1.421875 12.78125 6.34375 
Q 5.515625 14.109375 5.515625 27.296875 
Q 5.515625 40.671875 12.859375 48.328125 
Q 20.21875 56 33.015625 56 
Q 37.15625 56 41.109375 55.140625 
Q 45.0625 54.296875 48.78125 52.59375 
z
" id="DejaVuSans-99"/>
      <path d="M 30.609375 48.390625 
Q 23.390625 48.390625 19.1875 42.75 
Q 14.984375 37.109375 14.984375 27.296875 
Q 14.984375 17.484375 19.15625 11.84375 
Q 23.34375 6.203125 30.609375 6.203125 
Q 37.796875 6.203125 41.984375 11.859375 
Q 46.1875 17.53125 46.1875 27.296875 
Q 46.1875 37.015625 41.984375 42.703125 
Q 37.796875 48.390625 30.609375 48.390625 
z
M 30.609375 56 
Q 42.328125 56 49.015625 48.375 
Q 55.71875 40.765625 55.71875 27.296875 
Q 55.71875 13.875 49.015625 6.21875 
Q 42.328125 -1.421875 30.609375 -1.421875 
Q 18.84375 -1.421875 12.171875 6.21875 
Q 5.515625 13.875 5.515625 27.296875 
Q 5.515625 40.765625 12.171875 48.375 
Q 18.84375 56 30.609375 56 
z
" id="DejaVuSans-111"/>
     </defs>
     <g style="fill:#262626;" transform="translate(12.898828 129.413834)rotate(-90)scale(0.075 -0.075)">
      <use xlink:href="#DejaVuSans-75"/>
      <use x="65.576172" xlink:href="#DejaVuSans-76"/>
      <use x="121.273438" xlink:href="#DejaVuSans-45"/>
      <use x="157.357422" xlink:href="#DejaVuSans-68"/>
      <use x="234.359375" xlink:href="#DejaVuSans-105"/>
      <use x="262.142578" xlink:href="#DejaVuSans-118"/>
      <use x="321.322266" xlink:href="#DejaVuSans-101"/>
      <use x="382.845703" xlink:href="#DejaVuSans-114"/>
      <use x="423.943359" xlink:href="#DejaVuSans-103"/>
      <use x="487.419922" xlink:href="#DejaVuSans-101"/>
      <use x="548.943359" xlink:href="#DejaVuSans-110"/>
      <use x="612.322266" xlink:href="#DejaVuSans-99"/>
      <use x="667.302734" xlink:href="#DejaVuSans-101"/>
      <use x="728.826172" xlink:href="#DejaVuSans-32"/>
      <use x="760.613281" xlink:href="#DejaVuSans-83"/>
      <use x="824.089844" xlink:href="#DejaVuSans-99"/>
      <use x="879.070312" xlink:href="#DejaVuSans-111"/>
      <use x="940.251953" xlink:href="#DejaVuSans-114"/>
      <use x="981.333984" xlink:href="#DejaVuSans-101"/>
     </g>
    </g>
   </g>
   <g id="PolyCollection_1">
    <defs>
     <path d="M 42.274219 -160.972154 
L 42.274219 -35.217188 
L 187.704633 -35.217188 
L 187.704633 -160.972154 
L 187.704633 -160.972154 
L 42.274219 -160.972154 
z
" id="m003729db4c"/>
    </defs>
    <g clip-path="url(#pf1c25f0593)">
     <use style="fill:#33a02c;fill-opacity:0.1;" x="0" xlink:href="#m003729db4c" y="188.39952"/>
    </g>
   </g>
   <g id="PolyCollection_2">
    <defs>
     <path d="M 187.704633 -160.972154 
L 187.704633 -35.217188 
L 346.240695 -35.217188 
L 346.240695 -160.972154 
L 346.240695 -160.972154 
L 187.704633 -160.972154 
z
" id="m522b3da8a9"/>
    </defs>
    <g clip-path="url(#pf1c25f0593)">
     <use style="fill:#fdbf6f;fill-opacity:0.1;" x="0" xlink:href="#m522b3da8a9" y="188.39952"/>
    </g>
   </g>
   <g id="PolyCollection_3">
    <defs>
     <path d="M 346.240695 -160.972154 
L 346.240695 -35.217188 
L 505.622283 -35.217188 
L 505.622283 -160.972154 
L 505.622283 -160.972154 
L 346.240695 -160.972154 
z
" id="m3f98b66d69"/>
    </defs>
    <g clip-path="url(#pf1c25f0593)">
     <use style="fill:#e31a1c;fill-opacity:0.1;" x="0" xlink:href="#m3f98b66d69" y="188.39952"/>
    </g>
   </g>
   <g id="line2d_12">
    <path clip-path="url(#pf1c25f0593)" d="M 46.501847 143.185461 
L 47.347373 143.108707 
L 47.770136 142.953538 
L 49.038424 143.213215 
L 49.461187 143.421413 
L 49.88395 143.420278 
L 50.306713 143.270834 
L 50.729475 143.303978 
L 51.575001 143.084913 
L 52.420527 143.024892 
L 52.84329 143.146429 
L 53.266052 143.108414 
L 53.688815 142.903263 
L 54.957104 143.053612 
L 55.802629 143.002032 
L 56.225392 143.352316 
L 56.648155 143.436004 
L 57.070918 143.721279 
L 57.493681 143.588333 
L 58.761969 143.660635 
L 59.184732 143.524862 
L 59.607495 143.581141 
L 60.453021 143.810606 
L 60.875783 143.715306 
L 61.298546 143.403691 
L 61.721309 143.573375 
L 62.566835 143.248984 
L 62.989598 143.318548 
L 63.835123 143.864966 
L 64.257886 143.806083 
L 64.680649 143.581938 
L 65.526175 143.78075 
L 66.3717 143.43978 
L 66.794463 143.385177 
L 67.217226 143.447799 
L 67.639989 143.339571 
L 69.33104 143.43223 
L 69.753803 143.198504 
L 70.176566 143.122458 
L 70.599329 143.283091 
L 72.29038 143.10419 
L 72.713143 143.363885 
L 73.558668 143.636602 
L 74.404194 144.305826 
L 75.24972 145.33409 
L 75.672482 145.577929 
L 78.209059 145.779567 
L 78.631822 145.561359 
L 79.900111 145.616607 
L 80.322874 145.86895 
L 80.745636 145.869909 
L 81.591162 146.138362 
L 82.013925 146.373824 
L 82.436688 146.442221 
L 82.859451 146.679771 
L 83.282213 146.737486 
L 83.704976 146.941009 
L 85.81879 147.111734 
L 86.664316 147.597893 
L 87.087079 147.769096 
L 87.932605 147.851895 
L 88.355367 148.122897 
L 89.623656 148.31547 
L 90.891944 147.566906 
L 91.73747 147.436787 
L 92.160233 147.297176 
L 92.582996 146.910258 
L 93.428521 146.708697 
L 93.851284 146.528441 
L 95.542336 147.066842 
L 97.233387 147.111148 
L 97.65615 146.895213 
L 98.501675 146.858678 
L 99.347201 146.698205 
L 100.192727 146.702478 
L 100.61549 146.645528 
L 101.038252 146.725028 
L 101.461015 146.516731 
L 101.883778 146.547936 
L 102.729304 145.844411 
L 105.265881 142.812371 
L 106.111406 142.747744 
L 106.956932 142.751475 
L 107.379695 142.572575 
L 108.225221 142.630471 
L 109.493509 142.792717 
L 110.761798 142.621123 
L 111.607323 142.678805 
L 112.030086 142.750462 
L 113.298375 142.519933 
L 114.566663 142.641197 
L 115.412189 142.354998 
L 117.10324 142.524099 
L 117.526003 142.351826 
L 120.06258 142.128864 
L 120.908106 142.034895 
L 121.330868 141.925248 
L 122.176394 141.866874 
L 122.599157 141.685114 
L 123.444683 141.80208 
L 125.135734 142.117952 
L 126.404022 142.350585 
L 127.672311 142.620206 
L 128.095074 142.773072 
L 128.517837 142.802016 
L 129.363362 142.627721 
L 129.786125 142.719132 
L 130.631651 142.74758 
L 131.054414 142.942712 
L 131.477176 143.005229 
L 131.899939 143.389562 
L 132.745465 143.839955 
L 133.168228 144.022467 
L 133.590991 144.386707 
L 134.013753 144.50928 
L 134.859279 144.944259 
L 135.704805 145.364721 
L 136.127567 145.317049 
L 136.55033 145.050122 
L 137.818619 144.95902 
L 139.086907 145.246121 
L 139.50967 145.301779 
L 140.355196 145.001154 
L 140.777959 145.220958 
L 141.200721 145.228804 
L 141.623484 145.428049 
L 142.46901 145.401099 
L 142.891773 145.581801 
L 143.737298 145.47803 
L 144.582824 145.450973 
L 145.005587 145.512045 
L 145.851113 145.268435 
L 146.273875 145.446161 
L 146.696638 145.465517 
L 147.542164 145.014815 
L 148.38769 145.03916 
L 148.810452 145.149294 
L 149.233215 144.995923 
L 150.078741 145.369035 
L 150.924267 145.102536 
L 151.347029 145.091365 
L 151.769792 145.287592 
L 152.192555 145.347622 
L 152.615318 145.260227 
L 153.038081 145.293246 
L 153.460844 145.526501 
L 153.883606 145.403422 
L 154.306369 145.140908 
L 155.574658 144.946539 
L 156.420183 144.710913 
L 156.842946 144.953461 
L 157.265709 144.93613 
L 157.688472 144.568149 
L 158.95676 144.48742 
L 160.225049 144.793169 
L 161.070575 145.052554 
L 163.184389 146.5042 
L 163.607152 146.540057 
L 164.452677 147.145754 
L 164.87544 147.468361 
L 166.989254 147.231695 
L 167.83478 147.616005 
L 168.680306 147.549092 
L 169.948594 147.365777 
L 170.79412 147.619171 
L 171.216883 147.840861 
L 173.75346 147.737651 
L 174.598985 147.921188 
L 175.444511 147.876957 
L 176.290037 147.54216 
L 176.712799 147.437294 
L 177.558325 147.74685 
L 178.826614 147.519117 
L 179.672139 147.285048 
L 180.940428 147.667103 
L 181.363191 147.533315 
L 182.208716 147.449609 
L 183.054242 147.267709 
L 184.745293 147.320182 
L 186.013582 147.141068 
L 187.704633 147.662742 
L 188.550159 147.545284 
L 189.395684 147.496151 
L 191.086736 147.837553 
L 192.777787 147.282976 
L 193.20055 147.075982 
L 193.623313 147.058715 
L 194.891601 145.996849 
L 195.737127 144.982613 
L 196.15989 145.010768 
L 196.582652 144.882376 
L 197.428178 144.919996 
L 198.273704 144.26951 
L 200.387518 144.933233 
L 200.810281 144.634665 
L 201.233044 144.628228 
L 202.924095 145.537562 
L 203.769621 145.334184 
L 204.615146 145.388827 
L 205.460672 145.959568 
L 206.72896 145.59512 
L 207.151723 145.372621 
L 207.574486 145.455248 
L 207.997249 145.663634 
L 208.420012 145.681511 
L 210.111063 144.771723 
L 211.379352 145.279924 
L 212.224877 144.988239 
L 212.64764 144.723311 
L 213.070403 144.707143 
L 213.915929 145.254489 
L 214.338691 145.323773 
L 214.761454 145.013798 
L 215.184217 144.87035 
L 215.60698 144.558962 
L 216.452506 145.149622 
L 216.875268 145.40356 
L 217.720794 145.068436 
L 218.143557 144.827678 
L 218.56632 144.795502 
L 218.989083 145.071915 
L 219.834608 145.358882 
L 220.257371 145.134066 
L 221.102897 144.402802 
L 221.52566 144.654401 
L 222.371185 144.725332 
L 222.793948 144.821913 
L 223.216711 144.708402 
L 223.639474 144.273353 
L 224.484999 144.051096 
L 225.330525 143.972178 
L 226.176051 142.941528 
L 226.598814 142.578036 
L 227.021576 142.399622 
L 227.444339 141.940397 
L 227.867102 142.03037 
L 228.289865 141.705352 
L 229.135391 140.532873 
L 229.558153 140.506201 
L 230.403679 140.886861 
L 230.826442 140.832063 
L 231.249205 140.273674 
L 231.671968 140.070124 
L 232.09473 140.028811 
L 232.517493 140.210813 
L 233.363019 141.165754 
L 234.208545 140.606746 
L 234.631307 140.671591 
L 235.05407 140.854566 
L 235.899596 142.048438 
L 237.167884 141.366939 
L 238.01341 141.822482 
L 238.436173 142.460738 
L 238.858936 142.257514 
L 240.127224 141.262544 
L 241.395513 141.865329 
L 241.818276 141.670093 
L 242.663801 140.933658 
L 243.086564 141.118936 
L 243.509327 141.724465 
L 244.354853 141.912287 
L 245.200378 141.280623 
L 245.623141 141.099745 
L 246.468667 141.751878 
L 246.89143 141.863323 
L 247.314192 141.671722 
L 247.736955 141.17928 
L 248.159718 140.919467 
L 248.582481 141.120771 
L 249.005244 141.507079 
L 249.428007 141.731485 
L 249.850769 141.721475 
L 250.273532 141.434566 
L 250.696295 140.975042 
L 251.119058 140.8075 
L 252.387346 140.820443 
L 252.810109 140.502184 
L 253.232872 139.956187 
L 253.655635 139.960682 
L 254.078398 139.833688 
L 254.501161 139.865449 
L 254.923923 140.253401 
L 255.346686 140.115478 
L 255.769449 139.749972 
L 256.192212 138.94272 
L 256.614975 138.66549 
L 257.4605 138.618237 
L 257.883263 138.370898 
L 258.728789 137.128077 
L 259.151552 136.760908 
L 259.574314 136.67172 
L 259.997077 136.790154 
L 260.41984 137.307471 
L 260.842603 137.261158 
L 261.265366 136.8747 
L 262.110891 136.863728 
L 262.533654 137.264175 
L 262.956417 137.104464 
L 263.37918 136.754768 
L 263.801943 136.57812 
L 264.224706 136.5766 
L 265.070231 137.056774 
L 265.492994 136.844618 
L 265.915757 136.763644 
L 266.33852 136.302662 
L 266.761283 136.371391 
L 267.184045 137.110632 
L 267.606808 137.401075 
L 268.029571 137.107302 
L 268.452334 137.009455 
L 268.875097 136.658218 
L 269.29786 136.836799 
L 269.720622 137.303362 
L 270.143385 137.199334 
L 270.566148 137.29089 
L 271.411674 136.465944 
L 271.834437 136.592964 
L 272.257199 136.870091 
L 272.679962 136.895662 
L 273.102725 136.60176 
L 273.525488 136.119109 
L 273.948251 136.215708 
L 274.371014 136.486531 
L 274.793776 136.370749 
L 275.216539 136.641072 
L 276.062065 135.858941 
L 276.907591 135.939139 
L 277.330353 136.42798 
L 277.753116 136.362984 
L 278.598642 135.725557 
L 279.86693 136.721397 
L 280.289693 136.486644 
L 280.712456 136.453701 
L 281.135219 136.177945 
L 281.557982 135.730132 
L 281.980745 136.178866 
L 282.403507 136.353033 
L 282.82627 135.94466 
L 283.249033 135.699311 
L 283.671796 135.228659 
L 284.094559 135.528083 
L 284.517322 136.069335 
L 285.362847 135.760241 
L 285.78561 135.911212 
L 286.208373 135.71075 
L 286.631136 135.757589 
L 287.053899 136.061986 
L 287.476661 136.120093 
L 287.899424 135.595883 
L 288.322187 134.524688 
L 288.74495 133.82126 
L 289.167713 133.45071 
L 289.590476 133.446224 
L 290.013238 133.029746 
L 290.858764 130.908922 
L 291.281527 130.922432 
L 292.127053 130.772866 
L 292.549815 130.732799 
L 293.395341 131.033117 
L 293.818104 130.959913 
L 294.240867 130.604987 
L 294.66363 130.988462 
L 295.086392 130.992366 
L 295.931918 130.393942 
L 296.354681 130.532408 
L 296.777444 130.433324 
L 297.200207 129.967841 
L 297.622969 129.820825 
L 298.468495 130.113664 
L 298.891258 129.982671 
L 299.314021 130.069159 
L 299.736784 129.980225 
L 300.582309 130.221063 
L 301.005072 130.494313 
L 301.850598 130.463094 
L 302.273361 130.292601 
L 303.541649 130.240386 
L 303.964412 129.821285 
L 305.2327 130.167441 
L 305.655463 130.060061 
L 308.19204 130.995148 
L 308.614803 130.805139 
L 309.037566 130.447102 
L 309.883092 130.380187 
L 310.728617 129.433066 
L 311.15138 129.352328 
L 311.574143 129.135488 
L 311.996906 129.224616 
L 312.419669 129.168553 
L 312.842431 128.982402 
L 314.956246 129.096382 
L 315.379008 128.990319 
L 315.801771 129.372679 
L 316.224534 129.447698 
L 316.647297 129.321807 
L 317.07006 128.97005 
L 317.492823 128.797805 
L 317.915585 128.915072 
L 318.338348 129.402847 
L 318.761111 129.217843 
L 319.183874 129.237026 
L 319.606637 126.937591 
L 320.0294 123.755138 
L 323.411502 105.22695 
L 323.834265 105.046401 
L 324.257028 105.81184 
L 324.679791 105.228547 
L 325.102553 105.431602 
L 325.525316 106.06499 
L 325.948079 106.34729 
L 326.370842 106.146945 
L 326.793605 105.418945 
L 327.216368 106.334289 
L 328.061893 105.722544 
L 328.484656 105.357101 
L 328.907419 106.240507 
L 329.330182 106.50133 
L 329.752945 105.543614 
L 330.175707 105.583247 
L 331.021233 107.268843 
L 331.443996 106.028532 
L 331.866759 105.88708 
L 332.289522 106.454905 
L 332.712284 106.617058 
L 333.55781 105.702509 
L 333.980573 106.521323 
L 334.403336 106.433279 
L 334.826099 106.119762 
L 335.248861 105.634134 
L 335.671624 106.412035 
L 336.094387 106.658547 
L 336.51715 106.234453 
L 336.939913 106.825791 
L 337.362676 106.736836 
L 337.785438 106.431343 
L 338.208201 105.278091 
L 338.630964 106.056463 
L 339.053727 106.193383 
L 339.899253 105.07638 
L 340.322015 104.902867 
L 340.744778 105.686956 
L 341.167541 104.537677 
L 341.590304 104.492933 
L 342.013067 105.188571 
L 342.43583 106.368655 
L 343.281355 104.903605 
L 343.704118 105.75399 
L 344.126881 105.895496 
L 344.549644 105.794607 
L 344.972407 104.995111 
L 345.395169 105.568244 
L 345.817932 105.726623 
L 346.240695 104.386465 
L 347.086221 104.435966 
L 347.508984 104.915661 
L 347.931746 104.052578 
L 348.354509 104.234806 
L 348.777272 105.126187 
L 349.200035 105.103525 
L 349.622798 104.672938 
L 350.045561 104.751779 
L 350.468323 106.477898 
L 350.891086 105.694744 
L 351.313849 105.167823 
L 351.736612 103.263902 
L 352.159375 102.185435 
L 352.582138 100.750255 
L 353.427663 96.7289 
L 354.273189 94.907171 
L 355.118715 90.716711 
L 355.541477 90.015727 
L 355.96424 90.839497 
L 356.387003 90.45181 
L 356.809766 90.76011 
L 357.232529 90.93078 
L 357.655292 90.936267 
L 358.078054 90.801999 
L 358.500817 91.02532 
L 358.92358 90.912934 
L 359.346343 91.302414 
L 360.191869 90.651364 
L 360.614631 90.638872 
L 361.037394 90.460737 
L 361.88292 92.152281 
L 362.305683 91.762245 
L 362.728446 91.208155 
L 363.151208 92.008587 
L 363.573971 92.018449 
L 363.996734 92.499599 
L 364.419497 92.695622 
L 365.687785 92.099481 
L 366.110548 92.790044 
L 366.533311 92.78444 
L 366.956074 91.729802 
L 367.378837 91.963227 
L 367.8016 91.826507 
L 368.224362 91.483696 
L 368.647125 92.186734 
L 369.069888 93.112491 
L 369.915414 91.833285 
L 370.760939 92.221614 
L 371.183702 92.822096 
L 371.606465 91.947634 
L 372.029228 92.498373 
L 372.451991 91.837627 
L 372.874754 91.482216 
L 373.297516 91.972483 
L 373.720279 91.763934 
L 374.143042 90.770139 
L 374.565805 90.706776 
L 374.988568 91.064877 
L 375.411331 90.883987 
L 375.834093 91.464605 
L 376.679619 91.495671 
L 377.102382 90.968224 
L 377.525145 91.199705 
L 377.947908 92.246975 
L 378.37067 92.464023 
L 378.793433 91.345913 
L 379.216196 92.036943 
L 379.638959 91.591063 
L 380.061722 91.641335 
L 380.484485 92.04084 
L 380.907247 92.240322 
L 381.33001 91.67067 
L 381.752773 91.577308 
L 382.175536 91.836807 
L 382.598299 92.472038 
L 383.021061 91.798243 
L 385.557638 81.476262 
L 385.980401 80.480049 
L 386.403164 77.995323 
L 386.825927 76.437465 
L 387.24869 76.354707 
L 387.671453 75.232292 
L 388.094215 76.191379 
L 388.516978 76.805905 
L 388.939741 76.397539 
L 389.362504 76.525777 
L 389.785267 76.831131 
L 390.20803 75.097829 
L 390.630792 74.583963 
L 391.476318 75.514333 
L 391.899081 75.987745 
L 392.321844 77.01407 
L 393.167369 75.764433 
L 393.590132 76.078464 
L 394.012895 76.761435 
L 394.435658 76.570833 
L 394.858421 78.115152 
L 395.281184 77.81973 
L 395.703946 75.850797 
L 396.126709 75.733933 
L 396.549472 75.79345 
L 396.972235 74.679104 
L 397.394998 75.63737 
L 397.817761 76.915413 
L 398.240523 75.534233 
L 398.663286 75.821991 
L 399.086049 75.943876 
L 399.508812 75.661237 
L 399.931575 76.392488 
L 400.354338 77.585414 
L 400.7771 76.900103 
L 401.199863 76.847563 
L 401.622626 76.658258 
L 402.045389 75.442794 
L 402.468152 75.095349 
L 402.890915 76.270674 
L 403.313677 76.41769 
L 403.73644 76.045283 
L 404.159203 77.020874 
L 405.004729 75.761494 
L 405.427492 76.70566 
L 405.850254 77.249611 
L 406.273017 76.93485 
L 406.69578 77.877334 
L 407.118543 77.195515 
L 407.541306 75.058025 
L 407.964069 75.034359 
L 408.386831 74.86341 
L 408.809594 73.777776 
L 409.65512 75.348156 
L 410.077883 74.139981 
L 410.500646 74.138742 
L 410.923408 74.733464 
L 411.346171 74.222174 
L 411.768934 75.035925 
L 412.191697 76.116372 
L 412.61446 75.412509 
L 413.037223 75.990251 
L 413.459985 76.039891 
L 413.882748 75.025911 
L 414.728274 74.195146 
L 415.151037 72.105952 
L 416.419325 71.317763 
L 416.842088 71.529717 
L 417.264851 69.396058 
L 417.687614 68.517647 
L 418.110377 68.517417 
L 418.533139 68.102675 
L 418.955902 67.419129 
L 419.378665 68.340666 
L 419.801428 68.682799 
L 420.224191 71.12202 
L 420.646954 69.439058 
L 421.069716 67.225441 
L 421.492479 69.662694 
L 421.915242 69.697284 
L 422.338005 68.194482 
L 422.760768 68.845088 
L 423.183531 70.377493 
L 423.606293 70.60095 
L 424.029056 71.110438 
L 424.451819 67.523764 
L 424.874582 67.666062 
L 425.297345 70.551351 
L 425.720108 68.491811 
L 426.14287 67.465628 
L 426.565633 68.977903 
L 426.988396 69.241176 
L 427.411159 68.525241 
L 427.833922 68.053222 
L 428.256685 65.717668 
L 428.679447 67.581183 
L 429.10221 68.349007 
L 429.524973 65.310058 
L 429.947736 66.563091 
L 430.370499 68.77651 
L 430.793262 68.017647 
L 431.216024 67.526065 
L 431.638787 67.36684 
L 432.06155 66.662868 
L 432.484313 68.426581 
L 432.907076 67.676072 
L 433.329839 65.487192 
L 433.752601 68.328524 
L 434.175364 69.785658 
L 434.598127 67.730129 
L 436.289178 69.022273 
L 436.711941 67.255385 
L 437.134704 67.173164 
L 437.557467 70.599449 
L 437.98023 69.350226 
L 438.402993 66.110092 
L 438.825755 67.092104 
L 439.248518 66.945905 
L 439.671281 66.280232 
L 440.516807 65.322389 
L 441.362332 69.15225 
L 441.785095 65.78108 
L 442.207858 65.212679 
L 442.630621 67.466689 
L 443.053384 66.25112 
L 443.476147 65.5766 
L 443.898909 65.545445 
L 444.321672 65.630066 
L 444.744435 67.071868 
L 445.167198 66.745324 
L 445.589961 63.343498 
L 446.012723 65.098455 
L 446.435486 64.72915 
L 446.858249 62.50123 
L 447.281012 62.214922 
L 447.703775 61.527387 
L 448.126538 59.812267 
L 448.5493 59.874349 
L 448.972063 56.851637 
L 449.394826 55.964196 
L 449.817589 55.489446 
L 450.240352 53.475421 
L 450.663115 53.441379 
L 451.085877 52.800307 
L 451.50864 53.160409 
L 451.931403 51.950247 
L 452.354166 53.879667 
L 452.776929 51.82814 
L 453.199692 53.142567 
L 453.622454 52.568076 
L 454.045217 53.065173 
L 454.46798 54.085811 
L 454.890743 52.877421 
L 455.313506 54.903575 
L 455.736269 53.482271 
L 456.159031 55.707014 
L 456.581794 54.051438 
L 457.004557 54.911787 
L 457.42732 55.388523 
L 457.850083 54.47752 
L 458.272846 55.678637 
L 458.695608 53.491211 
L 459.118371 55.21462 
L 459.541134 53.712425 
L 459.963897 54.443861 
L 460.809423 53.900152 
L 461.232185 55.36072 
L 461.654948 53.612223 
L 462.077711 54.790348 
L 462.500474 52.695669 
L 462.923237 54.819852 
L 463.768762 53.648405 
L 464.191525 55.01232 
L 464.614288 53.294583 
L 465.037051 54.907312 
L 465.459814 53.158725 
L 465.882577 54.526014 
L 466.305339 53.28723 
L 466.728102 54.370457 
L 467.150865 54.294715 
L 467.573628 52.596262 
L 467.996391 55.020745 
L 468.419154 52.953703 
L 468.841916 54.421291 
L 469.264679 53.387276 
L 469.687442 53.521772 
L 470.110205 53.497727 
L 470.532968 53.687224 
L 470.955731 54.749173 
L 471.378493 52.942467 
L 471.801256 55.758831 
L 472.224019 53.701612 
L 472.646782 54.484269 
L 473.069545 53.978675 
L 473.492308 53.874629 
L 473.91507 54.503519 
L 474.337833 52.474313 
L 474.760596 54.114632 
L 475.183359 51.82104 
L 475.606122 53.873721 
L 476.028885 52.504759 
L 476.451647 52.537008 
L 476.87441 53.272872 
L 477.297173 52.263546 
L 477.719936 52.877282 
L 478.142699 50.30926 
L 478.565462 51.67571 
L 478.988224 48.54507 
L 479.410987 49.653447 
L 479.83375 46.527072 
L 480.679276 45.605983 
L 481.102039 43.439678 
L 481.524801 44.335037 
L 481.947564 42.310539 
L 482.370327 44.556567 
L 482.79309 43.022051 
L 483.215853 44.790296 
L 483.638616 44.872785 
L 484.061378 46.245339 
L 484.484141 46.464429 
L 484.906904 45.096666 
L 485.329667 45.958571 
L 485.75243 44.495777 
L 486.175193 45.381233 
L 486.597955 43.735331 
L 487.020718 43.520961 
L 487.443481 43.878668 
L 487.866244 41.951107 
L 488.289007 42.247449 
L 488.71177 40.822046 
L 489.134532 42.103903 
L 489.557295 41.821643 
L 489.980058 41.130584 
L 490.402821 42.184081 
L 490.825584 41.664636 
L 491.248347 43.010455 
L 491.671109 41.638412 
L 492.093872 42.659769 
L 492.516635 42.623404 
L 492.939398 42.003375 
L 493.362161 42.933478 
L 493.784924 41.475743 
L 494.207686 44.12128 
L 494.630449 41.531657 
L 495.053212 42.98441 
L 495.475975 42.513809 
L 495.898738 42.635779 
L 496.321501 43.837923 
L 496.744263 42.342594 
L 497.167026 45.026642 
L 497.589789 44.096661 
L 498.012552 45.984864 
L 498.435315 45.057006 
L 498.858078 46.237987 
L 499.28084 46.734172 
L 499.703603 45.885975 
L 500.126366 47.169151 
L 500.549129 45.234865 
L 500.971892 47.215477 
L 501.394655 46.379326 
L 501.817417 45.946188 
L 502.24018 46.128575 
L 502.662943 44.761348 
L 503.085706 45.158344 
L 503.508469 43.884485 
L 503.931232 45.531755 
L 504.353994 45.342081 
L 504.776757 45.309413 
L 505.19952 45.48197 
L 505.622283 44.042337 
L 505.622283 44.042337 
" style="fill:none;stroke:#1f253f;stroke-linecap:round;stroke-width:1.5;"/>
   </g>
   <g id="line2d_13">
    <path clip-path="url(#pf1c25f0593)" d="M 42.274219 143.594463 
L 42.696982 143.755377 
L 43.119744 144.15676 
L 43.96527 141.172102 
L 44.388033 143.136233 
L 44.810796 143.54795 
L 45.233559 143.462141 
L 45.656321 143.858501 
L 46.079084 142.721179 
L 46.501847 143.276667 
L 46.92461 143.30563 
L 47.347373 142.605073 
L 47.770136 143.013991 
L 48.192898 141.670952 
L 48.615661 144.670062 
L 49.038424 145.629937 
L 49.461187 143.450785 
L 49.88395 142.364058 
L 50.306713 143.05262 
L 50.729475 141.788478 
L 51.152238 142.603175 
L 51.575001 141.936481 
L 51.997764 143.082376 
L 52.420527 142.886315 
L 52.84329 144.289918 
L 53.266052 143.578423 
L 53.688815 143.985854 
L 54.111578 142.90919 
L 54.534341 143.475907 
L 54.957104 141.145119 
L 55.379867 142.730735 
L 55.802629 145.43932 
L 56.225392 143.919262 
L 56.648155 145.739059 
L 57.070918 142.960463 
L 57.916444 144.882605 
L 58.339206 142.451706 
L 59.184732 141.707908 
L 59.607495 144.436681 
L 60.030258 146.028024 
L 60.453021 142.96626 
L 60.875783 142.622907 
L 61.298546 144.6573 
L 61.721309 142.262785 
L 62.144072 143.23809 
L 62.566835 143.14735 
L 62.989598 144.760889 
L 63.41236 144.529376 
L 63.835123 143.847849 
L 64.680649 143.68875 
L 65.103412 143.888543 
L 65.948937 141.033985 
L 66.3717 142.692066 
L 66.794463 143.773565 
L 67.217226 143.678613 
L 67.639989 145.028417 
L 68.062752 144.090091 
L 68.485514 144.171028 
L 68.908277 143.489601 
L 69.33104 141.551283 
L 69.753803 141.715935 
L 70.176566 142.640314 
L 70.599329 142.206346 
L 71.022091 143.848551 
L 71.867617 143.627172 
L 72.29038 146.687036 
L 72.713143 145.051427 
L 73.135906 145.336375 
L 73.558668 144.730238 
L 73.981431 145.229213 
L 74.404194 147.527953 
L 74.826957 147.601353 
L 75.24972 146.286939 
L 75.672482 144.009011 
L 76.095245 144.388064 
L 76.518008 146.718544 
L 76.940771 145.617597 
L 77.363534 144.986134 
L 77.786297 145.430859 
L 78.209059 143.047132 
L 78.631822 147.476458 
L 79.054585 147.596114 
L 79.477348 146.896156 
L 79.900111 146.53244 
L 80.322874 144.397657 
L 80.745636 147.853987 
L 81.168399 147.166689 
L 81.591162 147.340753 
L 82.013925 146.114821 
L 82.436688 145.422634 
L 82.859451 148.053607 
L 83.282213 149.631342 
L 83.704976 147.100373 
L 84.550502 144.65895 
L 84.973265 148.012326 
L 85.396028 148.784284 
L 85.81879 150.38994 
L 86.241553 147.927225 
L 86.664316 147.13466 
L 87.509842 150.039559 
L 87.932605 149.81039 
L 88.355367 146.55559 
L 88.77813 145.754401 
L 89.200893 148.285261 
L 89.623656 146.387565 
L 90.046419 147.165254 
L 90.469182 146.062996 
L 91.314707 147.578144 
L 91.73747 148.643451 
L 92.160233 145.941203 
L 92.582996 146.075526 
L 93.005759 144.218859 
L 93.428521 146.482698 
L 94.274047 149.501047 
L 94.69681 146.581489 
L 95.119573 147.717811 
L 95.542336 147.575707 
L 95.965098 148.798147 
L 96.387861 146.485563 
L 96.810624 145.821976 
L 97.233387 142.059505 
L 97.65615 146.478528 
L 98.078913 147.567005 
L 98.501675 148.158722 
L 98.924438 146.31909 
L 99.347201 148.188145 
L 99.769964 147.148106 
L 100.192727 148.228646 
L 100.61549 147.280555 
L 101.038252 143.739009 
L 101.461015 142.371551 
L 101.883778 143.362411 
L 102.306541 143.647876 
L 103.152067 141.867155 
L 103.574829 142.514325 
L 103.997592 141.708663 
L 104.420355 143.290973 
L 104.843118 142.761639 
L 105.265881 143.062775 
L 105.688644 142.401518 
L 106.111406 143.839111 
L 106.534169 143.208486 
L 106.956932 141.071106 
L 107.379695 141.913075 
L 107.802458 143.04736 
L 108.225221 142.578005 
L 108.647983 144.44274 
L 109.070746 142.362996 
L 109.493509 142.312829 
L 109.916272 142.125701 
L 110.339035 143.148926 
L 110.761798 143.176126 
L 111.18456 141.680296 
L 111.607323 142.629644 
L 112.030086 142.027807 
L 112.875612 143.167668 
L 113.298375 142.637751 
L 113.721137 143.11912 
L 114.1439 142.257297 
L 114.566663 141.713072 
L 114.989426 141.749987 
L 115.412189 141.960858 
L 115.834952 142.392881 
L 116.257714 143.179496 
L 116.680477 143.062859 
L 117.10324 141.444935 
L 117.948766 142.828706 
L 118.371529 141.699577 
L 118.794291 141.150453 
L 119.217054 141.595186 
L 119.639817 141.802731 
L 120.06258 142.273721 
L 120.485343 142.358967 
L 121.330868 141.635548 
L 122.176394 141.011111 
L 122.599157 141.893768 
L 123.02192 142.125923 
L 123.444683 142.591809 
L 123.867445 142.387483 
L 124.290208 144.060509 
L 124.712971 142.149517 
L 125.558497 142.530233 
L 125.98126 142.374111 
L 126.404022 141.76773 
L 126.826785 143.598035 
L 127.249548 142.361243 
L 127.672311 144.120467 
L 128.095074 142.676928 
L 128.517837 142.797654 
L 128.940599 141.669419 
L 129.363362 143.2955 
L 129.786125 142.297775 
L 130.208888 142.891046 
L 130.631651 143.719053 
L 131.054414 144.223203 
L 131.477176 146.204569 
L 132.322702 145.508906 
L 132.745465 144.622772 
L 133.168228 145.311821 
L 133.590991 144.521232 
L 134.013753 144.863516 
L 134.436516 144.675088 
L 134.859279 145.415601 
L 135.282042 146.731277 
L 135.704805 145.72785 
L 136.127567 143.123156 
L 136.55033 145.063471 
L 136.973093 144.348725 
L 137.818619 145.669124 
L 138.241382 145.309361 
L 138.664144 145.952368 
L 139.086907 145.972181 
L 139.932433 144.343376 
L 140.355196 145.321194 
L 140.777959 145.141928 
L 141.200721 146.341178 
L 141.623484 144.832188 
L 142.046247 145.687718 
L 142.46901 147.116378 
L 142.891773 145.800456 
L 143.737298 144.502111 
L 144.160061 144.680192 
L 144.582824 145.931917 
L 145.005587 144.461064 
L 145.42835 144.585948 
L 145.851113 146.609443 
L 146.273875 145.88128 
L 147.119401 143.753503 
L 147.542164 144.857017 
L 147.964927 144.974917 
L 148.38769 145.781535 
L 148.810452 144.398204 
L 149.233215 146.399394 
L 149.655978 146.378746 
L 150.078741 144.850288 
L 150.501504 144.975442 
L 150.924267 144.544602 
L 151.347029 145.715775 
L 151.769792 145.457322 
L 152.192555 144.100961 
L 152.615318 146.111727 
L 153.038081 146.730756 
L 153.883606 143.753603 
L 154.306369 144.538469 
L 154.729132 144.007413 
L 155.151895 143.880762 
L 155.997421 144.543537 
L 156.420183 146.526434 
L 156.842946 145.938422 
L 157.265709 143.050943 
L 157.688472 144.774712 
L 158.111235 143.47559 
L 158.95676 145.384963 
L 159.379523 144.406634 
L 159.802286 145.427371 
L 160.225049 145.623429 
L 160.647812 148.040387 
L 161.070575 148.866249 
L 161.493337 146.652096 
L 161.9161 147.315672 
L 162.338863 146.339236 
L 162.761626 146.98596 
L 163.184389 145.743533 
L 163.607152 148.024649 
L 164.029914 147.86633 
L 164.452677 148.849498 
L 164.87544 147.624765 
L 165.298203 147.517446 
L 166.566491 146.198668 
L 166.989254 148.83137 
L 167.412017 147.741223 
L 167.83478 148.195411 
L 168.257543 147.026439 
L 168.680306 148.232066 
L 169.103068 146.976375 
L 169.525831 146.95011 
L 169.948594 147.793661 
L 170.371357 148.24639 
L 171.216883 148.517667 
L 172.485171 146.93607 
L 172.907934 146.260443 
L 173.330697 148.56229 
L 173.75346 147.860884 
L 174.176222 148.718253 
L 174.598985 147.864546 
L 175.021748 148.355095 
L 175.444511 146.27916 
L 175.867274 146.905418 
L 176.290037 146.630778 
L 176.712799 148.882506 
L 177.135562 147.409572 
L 177.558325 148.124739 
L 177.981088 147.532995 
L 178.826614 146.758757 
L 179.672139 147.33819 
L 180.094902 148.53757 
L 180.517665 147.760151 
L 181.363191 147.31827 
L 181.785953 147.378986 
L 182.208716 146.462601 
L 182.631479 146.457753 
L 183.054242 146.980203 
L 183.477005 148.048958 
L 183.899768 147.681104 
L 184.32253 147.569171 
L 184.745293 146.802831 
L 185.168056 147.398424 
L 185.590819 146.630652 
L 186.013582 148.792983 
L 186.436345 147.626201 
L 186.859107 148.946384 
L 187.28187 147.130715 
L 187.704633 147.939557 
L 188.127396 146.615917 
L 188.550159 146.962965 
L 188.972922 146.917714 
L 189.395684 148.44514 
L 189.818447 148.670195 
L 190.24121 149.158197 
L 190.663973 147.58875 
L 191.086736 147.725247 
L 191.509499 146.37969 
L 191.932261 146.803685 
L 192.355024 144.178174 
L 192.777787 144.893026 
L 193.20055 146.745049 
L 193.623313 144.983332 
L 194.046076 145.074612 
L 194.468838 145.596922 
L 194.891601 141.97476 
L 195.314364 143.196881 
L 195.737127 146.661241 
L 196.15989 145.519762 
L 196.582652 144.766993 
L 197.005415 144.680407 
L 197.850941 141.85878 
L 198.273704 146.578395 
L 198.696467 146.124033 
L 199.119229 144.613069 
L 199.541992 145.355882 
L 199.964755 146.470267 
L 200.387518 142.534084 
L 201.233044 147.200303 
L 201.655806 145.775789 
L 202.078569 145.279735 
L 202.501332 147.31984 
L 202.924095 144.608578 
L 203.346858 144.094741 
L 203.769621 145.988827 
L 204.192383 146.383758 
L 204.615146 145.945029 
L 205.037909 146.999085 
L 205.460672 146.026596 
L 205.883435 144.463358 
L 206.306198 144.121386 
L 206.72896 145.094853 
L 207.151723 145.434851 
L 207.574486 146.178592 
L 207.997249 146.167597 
L 208.420012 144.265704 
L 208.842775 144.245598 
L 209.265537 143.68637 
L 209.6883 144.058917 
L 210.111063 146.209009 
L 210.533826 146.464284 
L 210.956589 146.088313 
L 211.379352 144.010184 
L 211.802114 144.686418 
L 212.224877 143.518313 
L 212.64764 144.104026 
L 213.070403 146.887243 
L 213.493166 146.518188 
L 214.338691 143.10926 
L 214.761454 145.029806 
L 215.184217 142.974435 
L 215.60698 147.468899 
L 216.029743 147.134302 
L 216.452506 146.05769 
L 216.875268 142.854725 
L 217.298031 144.78531 
L 217.720794 144.110608 
L 218.143557 144.429989 
L 218.56632 145.873382 
L 218.989083 146.30985 
L 219.411845 144.564066 
L 219.834608 145.220737 
L 220.257371 142.737166 
L 220.680134 143.142192 
L 221.102897 145.370711 
L 221.52566 144.84245 
L 221.948422 144.762774 
L 222.371185 145.3958 
L 222.793948 144.73827 
L 223.216711 141.959367 
L 223.639474 143.389806 
L 224.062237 144.172426 
L 224.484999 142.773062 
L 224.907762 142.317115 
L 225.330525 139.517423 
L 226.176051 141.127861 
L 226.598814 143.61166 
L 227.021576 140.146014 
L 227.444339 142.859096 
L 227.867102 140.13963 
L 228.712628 136.900227 
L 229.135391 142.050397 
L 229.558153 141.647428 
L 229.980916 142.065832 
L 230.403679 140.579879 
L 230.826442 138.027767 
L 231.249205 138.110515 
L 231.671968 142.445964 
L 232.09473 141.959649 
L 232.517493 143.926167 
L 232.940256 140.843941 
L 233.785782 138.443039 
L 234.208545 142.714278 
L 234.631307 142.409631 
L 235.05407 143.970807 
L 235.476833 144.1062 
L 235.899596 140.233872 
L 236.322359 140.556317 
L 236.745122 140.726593 
L 237.167884 142.577576 
L 237.590647 142.486511 
L 238.01341 144.825596 
L 238.436173 140.68204 
L 238.858936 139.0994 
L 239.281699 141.23394 
L 239.704461 140.203597 
L 240.127224 142.593341 
L 240.549987 142.110803 
L 240.97275 142.840483 
L 241.395513 140.625218 
L 241.818276 139.153382 
L 242.663801 142.534823 
L 243.086564 145.154688 
L 243.93209 140.59244 
L 244.354853 138.892269 
L 244.777615 139.495239 
L 245.200378 141.031704 
L 245.623141 143.795202 
L 246.045904 142.50473 
L 246.468667 141.90882 
L 246.89143 140.618815 
L 247.314192 140.230274 
L 247.736955 140.125178 
L 248.159718 142.605477 
L 248.582481 142.755348 
L 249.428007 140.931605 
L 249.850769 140.926118 
L 250.273532 137.909483 
L 250.696295 140.233406 
L 251.119058 141.011092 
L 251.541821 140.447047 
L 251.964584 139.645557 
L 252.387346 139.422887 
L 252.810109 137.295377 
L 253.232872 141.784247 
L 253.655635 139.661667 
L 254.078398 141.243727 
L 254.501161 141.789003 
L 254.923923 138.854175 
L 255.346686 137.356036 
L 255.769449 132.37452 
L 256.192212 136.873259 
L 256.614975 138.962775 
L 257.037738 137.282959 
L 257.4605 139.310856 
L 257.883263 133.384724 
L 258.306026 135.092464 
L 258.728789 138.117312 
L 259.151552 137.962291 
L 259.574314 138.540376 
L 260.41984 136.410131 
L 260.842603 135.098198 
L 261.688129 139.342724 
L 262.110891 137.389198 
L 262.533654 133.495352 
L 262.956417 134.620354 
L 263.37918 136.195811 
L 264.224706 140.240851 
L 264.647468 138.518713 
L 265.070231 132.976635 
L 265.492994 136.331632 
L 265.915757 134.732902 
L 266.761283 140.887758 
L 267.184045 137.524786 
L 267.606808 133.25808 
L 268.029571 137.546706 
L 268.452334 136.728478 
L 268.875097 140.304524 
L 269.720622 135.291348 
L 270.143385 135.648462 
L 270.566148 134.414075 
L 270.988911 136.300717 
L 271.411674 138.794986 
L 271.834437 136.029347 
L 272.257199 137.802418 
L 272.679962 133.789458 
L 273.102725 135.478017 
L 273.525488 138.608248 
L 273.948251 137.999582 
L 274.371014 134.490646 
L 274.793776 137.117296 
L 275.216539 132.467018 
L 276.062065 136.773636 
L 276.907591 138.677863 
L 277.330353 134.828056 
L 277.753116 134.693972 
L 278.175879 135.539592 
L 279.021405 140.266864 
L 279.86693 132.459856 
L 280.289693 136.444207 
L 280.712456 135.102542 
L 281.135219 134.199733 
L 281.557982 139.315399 
L 281.980745 136.435638 
L 282.403507 131.45587 
L 282.82627 135.541993 
L 283.249033 135.560351 
L 283.671796 138.76524 
L 284.094559 137.872376 
L 284.517322 134.65624 
L 284.940084 133.799567 
L 285.78561 137.310777 
L 286.208373 136.904025 
L 286.631136 134.499845 
L 287.053899 136.123058 
L 287.476661 130.318251 
L 287.899424 128.053296 
L 288.322187 130.838096 
L 288.74495 130.950737 
L 289.167713 133.754708 
L 289.590476 131.544672 
L 290.013238 125.701319 
L 290.436001 127.305236 
L 290.858764 134.634948 
L 291.281527 134.898577 
L 291.70429 130.047073 
L 292.127053 127.652623 
L 292.549815 132.515482 
L 292.972578 132.276536 
L 293.395341 133.02267 
L 293.818104 127.995408 
L 294.240867 129.536066 
L 294.66363 127.344281 
L 295.086392 131.454052 
L 295.509155 132.095231 
L 295.931918 131.431732 
L 296.354681 126.661785 
L 296.777444 127.860653 
L 297.622969 134.072829 
L 298.045732 129.87364 
L 298.468495 128.226138 
L 298.891258 128.209157 
L 299.736784 132.765946 
L 300.159546 133.169397 
L 300.582309 129.394284 
L 301.005072 127.651814 
L 301.427835 130.703024 
L 301.850598 132.367897 
L 302.696123 128.126181 
L 303.118886 127.64842 
L 303.541649 126.373709 
L 303.964412 133.94526 
L 304.387175 133.663078 
L 304.809938 131.182849 
L 305.2327 126.578008 
L 305.655463 132.118322 
L 306.078226 133.037122 
L 306.923752 130.366144 
L 307.346515 128.731817 
L 307.769277 128.545765 
L 308.19204 132.045172 
L 308.614803 130.082709 
L 309.037566 130.612845 
L 309.460329 126.478865 
L 309.883092 126.981768 
L 310.305854 128.702463 
L 310.728617 130.975732 
L 311.15138 128.197739 
L 311.574143 129.6231 
L 311.996906 127.985134 
L 312.419669 130.183668 
L 312.842431 130.50322 
L 313.265194 131.315891 
L 313.687957 127.722504 
L 314.11072 125.528359 
L 314.533483 128.928473 
L 314.956246 129.915099 
L 315.379008 132.021343 
L 315.801771 130.373294 
L 316.224534 126.726215 
L 316.647297 126.666105 
L 317.07006 128.780763 
L 317.492823 132.488565 
L 317.915585 132.600256 
L 318.338348 123.678312 
L 318.761111 129.12031 
L 319.183874 106.920749 
L 319.606637 100.196808 
L 320.0294 107.27669 
L 320.452162 105.029494 
L 320.874925 104.861499 
L 321.297688 102.740085 
L 321.720451 104.412438 
L 322.143214 109.822584 
L 322.565976 103.548963 
L 322.988739 107.460196 
L 323.411502 105.115258 
L 323.834265 107.851195 
L 324.257028 101.443755 
L 324.679791 107.060047 
L 325.102553 111.195377 
L 325.525316 105.563084 
L 325.948079 102.408994 
L 326.370842 102.542578 
L 326.793605 112.702405 
L 327.216368 104.765281 
L 327.63913 101.692722 
L 328.061893 104.196765 
L 328.484656 110.27782 
L 328.907419 109.668271 
L 329.330182 101.618224 
L 330.175707 111.226765 
L 330.59847 110.580771 
L 331.021233 100.299293 
L 331.443996 103.350765 
L 331.866759 107.370967 
L 332.289522 105.8183 
L 332.712284 105.765619 
L 333.135047 105.034978 
L 333.55781 109.806363 
L 333.980573 105.07897 
L 334.403336 108.091591 
L 334.826099 105.724493 
L 335.248861 108.078301 
L 336.094387 103.130021 
L 336.51715 111.731677 
L 336.939913 104.876073 
L 337.362676 101.98005 
L 337.785438 98.273841 
L 338.208201 112.862687 
L 338.630964 109.460797 
L 339.053727 100.109113 
L 339.47649 102.523652 
L 339.899253 104.080755 
L 340.322015 110.970918 
L 340.744778 100.238889 
L 341.590304 108.936439 
L 342.013067 110.074673 
L 342.43583 106.455894 
L 342.858592 101.21709 
L 343.281355 108.612964 
L 343.704118 103.938712 
L 344.126881 103.071866 
L 344.549644 102.975962 
L 344.972407 105.970216 
L 345.395169 106.01241 
L 345.817932 95.534866 
L 346.240695 110.769986 
L 346.663458 106.255589 
L 347.086221 106.014037 
L 347.508984 99.982135 
L 348.354509 111.985672 
L 348.777272 102.749342 
L 349.200035 101.664353 
L 350.045561 112.79606 
L 350.468323 102.938439 
L 350.891086 100.986378 
L 351.313849 86.974834 
L 352.159375 91.409195 
L 352.582138 92.334657 
L 353.0049 82.186812 
L 353.850426 99.081097 
L 354.273189 88.892136 
L 354.695952 84.937764 
L 355.118715 93.976539 
L 355.541477 95.212533 
L 355.96424 85.320589 
L 356.387003 94.492198 
L 356.809766 94.041363 
L 357.232529 82.241678 
L 357.655292 89.824096 
L 358.078054 101.314302 
L 358.500817 87.768281 
L 358.92358 88.83256 
L 359.346343 90.931775 
L 359.769106 91.746798 
L 360.191869 85.195674 
L 360.614631 92.710842 
L 361.037394 102.244106 
L 361.460157 90.954381 
L 361.88292 85.923728 
L 362.305683 95.773409 
L 362.728446 95.772601 
L 363.151208 88.931179 
L 363.573971 95.743276 
L 363.996734 93.707029 
L 364.419497 83.493741 
L 364.84226 90.569625 
L 365.265023 100.125838 
L 365.687785 97.86001 
L 366.110548 85.86769 
L 366.533311 85.227033 
L 366.956074 98.106855 
L 367.378837 87.563972 
L 367.8016 92.315168 
L 368.224362 100.737406 
L 369.069888 84.723698 
L 369.915414 99.503078 
L 370.338177 88.107913 
L 370.760939 91.231849 
L 371.183702 89.362245 
L 371.606465 93.071355 
L 372.029228 85.707712 
L 372.451991 97.18329 
L 372.874754 97.653982 
L 373.297516 82.638215 
L 373.720279 83.241751 
L 374.143042 98.869448 
L 374.565805 91.688928 
L 374.988568 89.422948 
L 375.411331 95.168423 
L 375.834093 92.880513 
L 376.256856 86.209213 
L 376.679619 91.90882 
L 377.102382 99.968795 
L 377.947908 85.412229 
L 378.37067 87.688348 
L 378.793433 98.599227 
L 379.216196 84.964148 
L 379.638959 95.671145 
L 380.061722 96.87556 
L 380.484485 88.204032 
L 380.907247 86.212301 
L 381.33001 99.035174 
L 382.175536 91.764538 
L 382.598299 80.950396 
L 383.021061 80.866234 
L 383.443824 62.923684 
L 383.866587 79.492578 
L 384.28935 79.691369 
L 384.712113 69.799621 
L 385.134876 74.53312 
L 385.557638 89.073044 
L 385.980401 70.858647 
L 386.825927 80.122817 
L 387.24869 69.642088 
L 387.671453 72.514549 
L 388.094215 85.63784 
L 388.516978 75.60771 
L 388.939741 71.082003 
L 389.362504 77.586656 
L 390.20803 65.71998 
L 390.630792 81.748453 
L 391.053555 83.864026 
L 391.476318 74.376205 
L 391.899081 82.777802 
L 392.321844 78.894188 
L 392.744607 69.854987 
L 393.167369 74.222318 
L 393.590132 84.416366 
L 394.012895 69.834003 
L 394.435658 81.163177 
L 394.858421 78.794232 
L 395.281184 64.174693 
L 396.126709 83.372972 
L 396.549472 67.750725 
L 396.972235 79.437648 
L 397.394998 87.002748 
L 397.817761 70.604564 
L 398.240523 72.71159 
L 398.663286 82.382029 
L 399.086049 75.967841 
L 399.508812 71.4872 
L 399.931575 85.136828 
L 400.7771 67.225328 
L 401.199863 77.544599 
L 401.622626 74.848107 
L 402.045389 67.130111 
L 402.468152 84.464837 
L 402.890915 83.852191 
L 403.313677 72.243774 
L 403.73644 81.243105 
L 404.159203 78.787234 
L 404.581966 70.275649 
L 405.427492 82.984115 
L 405.850254 71.700491 
L 406.273017 76.554955 
L 406.69578 77.646648 
L 407.118543 62.477284 
L 407.964069 79.533615 
L 408.386831 67.930898 
L 408.809594 78.918304 
L 409.232357 83.728134 
L 409.65512 70.902359 
L 410.077883 71.688102 
L 410.500646 82.502181 
L 410.923408 72.533749 
L 411.346171 70.614786 
L 411.768934 82.811591 
L 412.191697 72.494986 
L 412.61446 73.70832 
L 413.037223 79.414699 
L 413.882748 66.926728 
L 414.305511 67.356084 
L 414.728274 61.610241 
L 415.151037 69.579302 
L 415.5738 66.63497 
L 415.996562 81.863969 
L 416.419325 74.614518 
L 416.842088 52.371735 
L 417.264851 70.630585 
L 417.687614 73.586042 
L 418.110377 62.779304 
L 418.533139 60.520626 
L 418.955902 70.825607 
L 419.378665 73.000633 
L 419.801428 91.027178 
L 420.224191 65.034356 
L 420.646954 52.478341 
L 421.069716 76.744263 
L 421.492479 70.976485 
L 421.915242 58.558029 
L 422.338005 69.285358 
L 422.760768 75.844681 
L 423.183531 73.060175 
L 423.606293 78.095518 
L 424.029056 55.160436 
L 424.451819 66.457335 
L 424.874582 81.331231 
L 425.297345 56.148865 
L 425.720108 60.714658 
L 426.14287 73.680769 
L 426.565633 71.918094 
L 426.988396 68.685326 
L 427.411159 68.339985 
L 427.833922 54.739979 
L 428.256685 73.795589 
L 428.679447 74.135569 
L 429.10221 50.941748 
L 429.947736 82.84885 
L 430.370499 66.092137 
L 430.793262 67.002275 
L 431.216024 67.093072 
L 431.638787 61.300272 
L 432.06155 72.377108 
L 432.484313 66.290501 
L 432.907076 52.246761 
L 433.329839 79.355069 
L 433.752601 83.250532 
L 434.175364 62.293563 
L 434.598127 69.082436 
L 435.02089 70.698291 
L 435.443653 68.194312 
L 435.866416 66.434156 
L 436.289178 54.708224 
L 436.711941 65.468299 
L 437.134704 86.509611 
L 437.98023 50.849196 
L 438.402993 72.113675 
L 439.248518 64.041565 
L 439.671281 64.160943 
L 440.094044 60.889098 
L 440.93957 84.447543 
L 441.362332 52.797915 
L 441.785095 61.178827 
L 442.207858 73.389295 
L 442.630621 59.957985 
L 443.053384 60.875249 
L 443.476147 63.730019 
L 443.898909 65.007148 
L 444.321672 75.307121 
L 444.744435 70.762135 
L 445.167198 50.429289 
L 445.589961 70.347481 
L 446.012723 57.485781 
L 446.435486 51.110091 
L 446.858249 57.094904 
L 447.281012 53.9999 
L 447.703775 46.578817 
L 448.126538 65.627968 
L 448.5493 45.080007 
L 448.972063 61.88772 
L 449.394826 45.681793 
L 449.817589 50.207226 
L 450.240352 57.14536 
L 450.663115 44.699372 
L 451.085877 60.695928 
L 451.50864 41.898283 
L 451.931403 65.873015 
L 452.354166 45.112694 
L 452.776929 58.224282 
L 453.199692 56.142808 
L 453.622454 50.652763 
L 454.045217 60.413608 
L 454.46798 45.061454 
L 454.890743 64.960916 
L 455.313506 46.482884 
L 455.736269 64.145712 
L 456.159031 49.317258 
L 456.581794 53.716188 
L 457.004557 62.991635 
L 457.42732 47.032784 
L 457.850083 62.663936 
L 458.272846 38.539346 
L 458.695608 62.295542 
L 459.118371 49.93897 
L 459.541134 53.797243 
L 459.963897 61.190245 
L 460.38666 46.835635 
L 460.809423 68.321863 
L 461.232185 45.506668 
L 461.654948 58.814033 
L 462.077711 41.717149 
L 462.500474 59.781174 
L 462.923237 56.688934 
L 463.346 43.831105 
L 463.768762 67.436394 
L 464.191525 44.012875 
L 464.614288 62.962927 
L 465.037051 50.835994 
L 465.459814 59.179554 
L 465.882577 46.426195 
L 466.728102 59.023756 
L 467.150865 39.7044 
L 467.573628 68.075934 
L 467.996391 46.765979 
L 468.419154 58.688755 
L 468.841916 52.62277 
L 469.264679 52.180957 
L 469.687442 58.939104 
L 470.110205 48.321165 
L 470.532968 63.168907 
L 470.955731 40.956703 
L 471.378493 67.868034 
L 471.801256 47.503745 
L 472.224019 54.592552 
L 472.646782 53.63281 
L 473.069545 51.582317 
L 473.492308 58.469848 
L 473.91507 38.64705 
L 474.337833 64.724358 
L 474.760596 40.232982 
L 475.183359 61.483513 
L 476.028885 47.82623 
L 476.451647 61.951191 
L 476.87441 43.539552 
L 477.297173 57.719684 
L 477.719936 32.789621 
L 478.142699 52.311556 
L 478.565462 33.417949 
L 478.988224 51.316757 
L 479.410987 30.219759 
L 479.83375 48.817266 
L 480.679276 40.288142 
L 481.102039 52.493141 
L 481.524801 37.474703 
L 481.947564 55.2499 
L 482.370327 36.9664 
L 482.79309 51.100398 
L 483.215853 52.141645 
L 483.638616 43.945297 
L 484.061378 51.00817 
L 484.484141 30.298863 
L 484.906904 48.907191 
L 485.329667 37.865198 
L 485.75243 46.329272 
L 486.175193 38.79088 
L 486.597955 34.822698 
L 487.020718 54.677468 
L 487.443481 32.866031 
L 487.866244 46.908722 
L 488.289007 36.754138 
L 488.71177 43.117429 
L 489.134532 46.084598 
L 489.557295 30.954605 
L 489.980058 56.864245 
L 490.402821 33.596426 
L 490.825584 48.280892 
L 491.248347 40.957036 
L 491.671109 43.079597 
L 492.093872 46.545072 
L 492.516635 30.553848 
L 492.939398 52.418457 
L 493.362161 31.507248 
L 493.784924 57.409979 
L 494.207686 30.968012 
L 494.630449 48.123957 
L 495.053212 43.574885 
L 495.475975 42.176732 
L 495.898738 55.101041 
L 496.321501 31.591783 
L 496.744263 57.394327 
L 497.167026 43.118645 
L 497.589789 50.389281 
L 498.012552 48.131396 
L 498.435315 42.777822 
L 498.858078 53.085812 
L 499.28084 35.092914 
L 499.703603 55.00849 
L 500.126366 35.758182 
L 500.549129 51.3979 
L 500.971892 49.032821 
L 501.394655 38.787264 
L 501.817417 52.213153 
L 502.24018 34.459117 
L 502.662943 46.747788 
L 503.085706 40.347223 
L 503.508469 51.565616 
L 503.931232 53.111746 
L 504.353994 35.431502 
L 504.776757 53.123468 
L 505.19952 34.636497 
L 505.622283 51.153696 
L 505.622283 51.153696 
" style="fill:none;stroke:#808080;stroke-linecap:round;stroke-opacity:0.5;stroke-width:0.5;"/>
   </g>
   <g id="patch_3">
    <path d="M 42.274219 153.182333 
L 505.19952 153.182333 
" style="fill:none;stroke:#262626;stroke-linecap:square;stroke-linejoin:miter;stroke-width:0.5;"/>
   </g>
   <g id="text_14">
    <!-- Healthy -->
    <defs>
     <path d="M 9.1875 72.90625 
L 27.984375 72.90625 
L 27.984375 45.125 
L 55.71875 45.125 
L 55.71875 72.90625 
L 74.515625 72.90625 
L 74.515625 0 
L 55.71875 0 
L 55.71875 30.90625 
L 27.984375 30.90625 
L 27.984375 0 
L 9.1875 0 
z
" id="DejaVuSans-Bold-72"/>
     <path d="M 62.984375 27.484375 
L 62.984375 22.515625 
L 22.125 22.515625 
Q 22.75 16.359375 26.5625 13.28125 
Q 30.375 10.203125 37.203125 10.203125 
Q 42.71875 10.203125 48.5 11.84375 
Q 54.296875 13.484375 60.40625 16.796875 
L 60.40625 3.328125 
Q 54.203125 0.984375 48 -0.21875 
Q 41.796875 -1.421875 35.59375 -1.421875 
Q 20.75 -1.421875 12.515625 6.125 
Q 4.296875 13.671875 4.296875 27.296875 
Q 4.296875 40.671875 12.375 48.328125 
Q 20.453125 56 34.625 56 
Q 47.515625 56 55.25 48.234375 
Q 62.984375 40.484375 62.984375 27.484375 
z
M 45.015625 33.296875 
Q 45.015625 38.28125 42.109375 41.328125 
Q 39.203125 44.390625 34.515625 44.390625 
Q 29.4375 44.390625 26.265625 41.53125 
Q 23.09375 38.671875 22.3125 33.296875 
z
" id="DejaVuSans-Bold-101"/>
     <path d="M 32.90625 24.609375 
Q 27.4375 24.609375 24.671875 22.75 
Q 21.921875 20.90625 21.921875 17.28125 
Q 21.921875 13.96875 24.140625 12.078125 
Q 26.375 10.203125 30.328125 10.203125 
Q 35.25 10.203125 38.625 13.734375 
Q 42 17.28125 42 22.609375 
L 42 24.609375 
z
M 59.625 31.203125 
L 59.625 0 
L 42 0 
L 42 8.109375 
Q 38.484375 3.125 34.078125 0.84375 
Q 29.6875 -1.421875 23.390625 -1.421875 
Q 14.890625 -1.421875 9.59375 3.53125 
Q 4.296875 8.5 4.296875 16.40625 
Q 4.296875 26.03125 10.90625 30.515625 
Q 17.53125 35.015625 31.6875 35.015625 
L 42 35.015625 
L 42 36.375 
Q 42 40.53125 38.71875 42.453125 
Q 35.453125 44.390625 28.515625 44.390625 
Q 22.90625 44.390625 18.0625 43.265625 
Q 13.234375 42.140625 9.078125 39.890625 
L 9.078125 53.21875 
Q 14.703125 54.59375 20.359375 55.296875 
Q 26.03125 56 31.6875 56 
Q 46.484375 56 53.046875 50.171875 
Q 59.625 44.34375 59.625 31.203125 
z
" id="DejaVuSans-Bold-97"/>
     <path d="M 8.40625 75.984375 
L 25.875 75.984375 
L 25.875 0 
L 8.40625 0 
z
" id="DejaVuSans-Bold-108"/>
     <path d="M 27.484375 70.21875 
L 27.484375 54.6875 
L 45.515625 54.6875 
L 45.515625 42.1875 
L 27.484375 42.1875 
L 27.484375 19 
Q 27.484375 15.1875 29 13.84375 
Q 30.515625 12.5 35.015625 12.5 
L 44 12.5 
L 44 0 
L 29 0 
Q 18.65625 0 14.328125 4.3125 
Q 10.015625 8.640625 10.015625 19 
L 10.015625 42.1875 
L 1.3125 42.1875 
L 1.3125 54.6875 
L 10.015625 54.6875 
L 10.015625 70.21875 
z
" id="DejaVuSans-Bold-116"/>
     <path d="M 63.375 33.296875 
L 63.375 0 
L 45.796875 0 
L 45.796875 5.421875 
L 45.796875 25.390625 
Q 45.796875 32.5625 45.484375 35.25 
Q 45.171875 37.9375 44.390625 39.203125 
Q 43.359375 40.921875 41.59375 41.875 
Q 39.84375 42.828125 37.59375 42.828125 
Q 32.125 42.828125 29 38.59375 
Q 25.875 34.375 25.875 26.90625 
L 25.875 0 
L 8.40625 0 
L 8.40625 75.984375 
L 25.875 75.984375 
L 25.875 46.6875 
Q 29.828125 51.46875 34.265625 53.734375 
Q 38.71875 56 44.09375 56 
Q 53.5625 56 58.46875 50.1875 
Q 63.375 44.390625 63.375 33.296875 
z
" id="DejaVuSans-Bold-104"/>
     <path d="M 1.21875 54.6875 
L 18.703125 54.6875 
L 33.40625 17.578125 
L 45.90625 54.6875 
L 63.375 54.6875 
L 40.375 -5.171875 
Q 36.921875 -14.3125 32.296875 -17.9375 
Q 27.6875 -21.578125 20.125 -21.578125 
L 10.015625 -21.578125 
L 10.015625 -10.109375 
L 15.484375 -10.109375 
Q 19.921875 -10.109375 21.9375 -8.6875 
Q 23.96875 -7.28125 25.09375 -3.609375 
L 25.59375 -2.09375 
z
" id="DejaVuSans-Bold-121"/>
    </defs>
    <g style="fill:#33a02c;" transform="translate(96.397668 42.729123)scale(0.085 -0.085)">
     <use xlink:href="#DejaVuSans-Bold-72"/>
     <use x="83.691406" xlink:href="#DejaVuSans-Bold-101"/>
     <use x="151.513672" xlink:href="#DejaVuSans-Bold-97"/>
     <use x="218.994141" xlink:href="#DejaVuSans-Bold-108"/>
     <use x="253.271484" xlink:href="#DejaVuSans-Bold-116"/>
     <use x="301.074219" xlink:href="#DejaVuSans-Bold-104"/>
     <use x="372.265625" xlink:href="#DejaVuSans-Bold-121"/>
    </g>
   </g>
   <g id="text_15">
    <!-- Degraded -->
    <defs>
     <path d="M 27.984375 58.6875 
L 27.984375 14.203125 
L 34.71875 14.203125 
Q 46.234375 14.203125 52.3125 19.921875 
Q 58.40625 25.640625 58.40625 36.53125 
Q 58.40625 47.359375 52.34375 53.015625 
Q 46.296875 58.6875 34.71875 58.6875 
z
M 9.1875 72.90625 
L 29 72.90625 
Q 45.609375 72.90625 53.734375 70.53125 
Q 61.859375 68.171875 67.671875 62.5 
Q 72.796875 57.5625 75.28125 51.109375 
Q 77.78125 44.671875 77.78125 36.53125 
Q 77.78125 28.265625 75.28125 21.796875 
Q 72.796875 15.328125 67.671875 10.40625 
Q 61.8125 4.734375 53.609375 2.359375 
Q 45.40625 0 29 0 
L 9.1875 0 
z
" id="DejaVuSans-Bold-68"/>
     <path d="M 45.609375 9.28125 
Q 42 4.5 37.640625 2.25 
Q 33.296875 0 27.59375 0 
Q 17.578125 0 11.03125 7.875 
Q 4.5 15.765625 4.5 27.984375 
Q 4.5 40.234375 11.03125 48.0625 
Q 17.578125 55.90625 27.59375 55.90625 
Q 33.296875 55.90625 37.640625 53.65625 
Q 42 51.421875 45.609375 46.578125 
L 45.609375 54.6875 
L 63.1875 54.6875 
L 63.1875 5.515625 
Q 63.1875 -7.671875 54.859375 -14.625 
Q 46.53125 -21.578125 30.71875 -21.578125 
Q 25.59375 -21.578125 20.796875 -20.796875 
Q 16.015625 -20.015625 11.1875 -18.40625 
L 11.1875 -4.78125 
Q 15.765625 -7.421875 20.15625 -8.71875 
Q 24.5625 -10.015625 29 -10.015625 
Q 37.59375 -10.015625 41.59375 -6.25 
Q 45.609375 -2.484375 45.609375 5.515625 
z
M 34.078125 43.3125 
Q 28.65625 43.3125 25.625 39.296875 
Q 22.609375 35.296875 22.609375 27.984375 
Q 22.609375 20.453125 25.53125 16.578125 
Q 28.46875 12.703125 34.078125 12.703125 
Q 39.546875 12.703125 42.578125 16.703125 
Q 45.609375 20.703125 45.609375 27.984375 
Q 45.609375 35.296875 42.578125 39.296875 
Q 39.546875 43.3125 34.078125 43.3125 
z
" id="DejaVuSans-Bold-103"/>
     <path d="M 49.03125 39.796875 
Q 46.734375 40.875 44.453125 41.375 
Q 42.1875 41.890625 39.890625 41.890625 
Q 33.15625 41.890625 29.515625 37.5625 
Q 25.875 33.25 25.875 25.203125 
L 25.875 0 
L 8.40625 0 
L 8.40625 54.6875 
L 25.875 54.6875 
L 25.875 45.703125 
Q 29.25 51.078125 33.609375 53.53125 
Q 37.984375 56 44.09375 56 
Q 44.96875 56 45.984375 55.921875 
Q 47.015625 55.859375 48.96875 55.609375 
z
" id="DejaVuSans-Bold-114"/>
     <path d="M 45.609375 46.6875 
L 45.609375 75.984375 
L 63.1875 75.984375 
L 63.1875 0 
L 45.609375 0 
L 45.609375 7.90625 
Q 42 3.078125 37.640625 0.828125 
Q 33.296875 -1.421875 27.59375 -1.421875 
Q 17.484375 -1.421875 10.984375 6.609375 
Q 4.5 14.65625 4.5 27.296875 
Q 4.5 39.9375 10.984375 47.96875 
Q 17.484375 56 27.59375 56 
Q 33.25 56 37.625 53.734375 
Q 42 51.46875 45.609375 46.6875 
z
M 34.078125 11.28125 
Q 39.703125 11.28125 42.65625 15.375 
Q 45.609375 19.484375 45.609375 27.296875 
Q 45.609375 35.109375 42.65625 39.203125 
Q 39.703125 43.3125 34.078125 43.3125 
Q 28.515625 43.3125 25.5625 39.203125 
Q 22.609375 35.109375 22.609375 27.296875 
Q 22.609375 19.484375 25.5625 15.375 
Q 28.515625 11.28125 34.078125 11.28125 
z
" id="DejaVuSans-Bold-100"/>
    </defs>
    <g style="fill:#fdbf6f;" transform="translate(243.589031 42.729123)scale(0.085 -0.085)">
     <use xlink:href="#DejaVuSans-Bold-68"/>
     <use x="83.007812" xlink:href="#DejaVuSans-Bold-101"/>
     <use x="150.830078" xlink:href="#DejaVuSans-Bold-103"/>
     <use x="222.412109" xlink:href="#DejaVuSans-Bold-114"/>
     <use x="271.728516" xlink:href="#DejaVuSans-Bold-97"/>
     <use x="339.208984" xlink:href="#DejaVuSans-Bold-100"/>
     <use x="410.791016" xlink:href="#DejaVuSans-Bold-101"/>
     <use x="478.613281" xlink:href="#DejaVuSans-Bold-100"/>
    </g>
   </g>
   <g id="text_16">
    <!-- Failed -->
    <defs>
     <path d="M 9.1875 72.90625 
L 59.90625 72.90625 
L 59.90625 58.6875 
L 27.984375 58.6875 
L 27.984375 45.125 
L 58.015625 45.125 
L 58.015625 30.90625 
L 27.984375 30.90625 
L 27.984375 0 
L 9.1875 0 
z
" id="DejaVuSans-Bold-70"/>
     <path d="M 8.40625 54.6875 
L 25.875 54.6875 
L 25.875 0 
L 8.40625 0 
z
M 8.40625 75.984375 
L 25.875 75.984375 
L 25.875 61.71875 
L 8.40625 61.71875 
z
" id="DejaVuSans-Bold-105"/>
    </defs>
    <g style="fill:#e31a1c;" transform="translate(411.32477 42.762326)scale(0.085 -0.085)">
     <use xlink:href="#DejaVuSans-Bold-70"/>
     <use x="68.232422" xlink:href="#DejaVuSans-Bold-97"/>
     <use x="135.712891" xlink:href="#DejaVuSans-Bold-105"/>
     <use x="169.990234" xlink:href="#DejaVuSans-Bold-108"/>
     <use x="204.267578" xlink:href="#DejaVuSans-Bold-101"/>
     <use x="272.089844" xlink:href="#DejaVuSans-Bold-100"/>
    </g>
   </g>
   <g id="legend_1">
    <g id="patch_4">
     <path d="M 56.782725 89.862947 
L 139.432725 89.862947 
Q 140.932725 89.862947 140.932725 88.362947 
L 140.932725 67.095759 
Q 140.932725 65.595759 139.432725 65.595759 
L 56.782725 65.595759 
Q 55.282725 65.595759 55.282725 67.095759 
L 55.282725 88.362947 
Q 55.282725 89.862947 56.782725 89.862947 
z
" style="fill:#ffffff;opacity:0.8;stroke:#cccccc;stroke-linejoin:miter;"/>
    </g>
    <g id="line2d_14">
     <path d="M 58.282725 71.669587 
L 73.282725 71.669587 
" style="fill:none;stroke:#1f253f;stroke-linecap:round;stroke-width:1.5;"/>
    </g>
    <g id="line2d_15"/>
    <g id="text_17">
     <!-- Rolling average -->
     <defs>
      <path d="M 44.390625 34.1875 
Q 47.5625 33.109375 50.5625 29.59375 
Q 53.5625 26.078125 56.59375 19.921875 
L 66.609375 0 
L 56 0 
L 46.6875 18.703125 
Q 43.0625 26.03125 39.671875 28.421875 
Q 36.28125 30.8125 30.421875 30.8125 
L 19.671875 30.8125 
L 19.671875 0 
L 9.8125 0 
L 9.8125 72.90625 
L 32.078125 72.90625 
Q 44.578125 72.90625 50.734375 67.671875 
Q 56.890625 62.453125 56.890625 51.90625 
Q 56.890625 45.015625 53.6875 40.46875 
Q 50.484375 35.9375 44.390625 34.1875 
z
M 19.671875 64.796875 
L 19.671875 38.921875 
L 32.078125 38.921875 
Q 39.203125 38.921875 42.84375 42.21875 
Q 46.484375 45.515625 46.484375 51.90625 
Q 46.484375 58.296875 42.84375 61.546875 
Q 39.203125 64.796875 32.078125 64.796875 
z
" id="DejaVuSans-82"/>
     </defs>
     <g style="fill:#262626;" transform="translate(79.282725 74.294587)scale(0.075 -0.075)">
      <use xlink:href="#DejaVuSans-82"/>
      <use x="69.419922" xlink:href="#DejaVuSans-111"/>
      <use x="130.601562" xlink:href="#DejaVuSans-108"/>
      <use x="158.384766" xlink:href="#DejaVuSans-108"/>
      <use x="186.167969" xlink:href="#DejaVuSans-105"/>
      <use x="213.951172" xlink:href="#DejaVuSans-110"/>
      <use x="277.330078" xlink:href="#DejaVuSans-103"/>
      <use x="340.806641" xlink:href="#DejaVuSans-32"/>
      <use x="372.59375" xlink:href="#DejaVuSans-97"/>
      <use x="433.873047" xlink:href="#DejaVuSans-118"/>
      <use x="493.052734" xlink:href="#DejaVuSans-101"/>
      <use x="554.576172" xlink:href="#DejaVuSans-114"/>
      <use x="595.689453" xlink:href="#DejaVuSans-97"/>
      <use x="656.96875" xlink:href="#DejaVuSans-103"/>
      <use x="720.445312" xlink:href="#DejaVuSans-101"/>
     </g>
    </g>
    <g id="line2d_16">
     <path d="M 58.282725 82.678181 
L 73.282725 82.678181 
" style="fill:none;stroke:#808080;stroke-linecap:round;stroke-opacity:0.5;stroke-width:0.5;"/>
    </g>
    <g id="line2d_17"/>
    <g id="text_18">
     <!-- KL-Divergence -->
     <g style="fill:#262626;" transform="translate(79.282725 85.303181)scale(0.075 -0.075)">
      <use xlink:href="#DejaVuSans-75"/>
      <use x="65.576172" xlink:href="#DejaVuSans-76"/>
      <use x="121.273438" xlink:href="#DejaVuSans-45"/>
      <use x="157.357422" xlink:href="#DejaVuSans-68"/>
      <use x="234.359375" xlink:href="#DejaVuSans-105"/>
      <use x="262.142578" xlink:href="#DejaVuSans-118"/>
      <use x="321.322266" xlink:href="#DejaVuSans-101"/>
      <use x="382.845703" xlink:href="#DejaVuSans-114"/>
      <use x="423.943359" xlink:href="#DejaVuSans-103"/>
      <use x="487.419922" xlink:href="#DejaVuSans-101"/>
      <use x="548.943359" xlink:href="#DejaVuSans-110"/>
      <use x="612.322266" xlink:href="#DejaVuSans-99"/>
      <use x="667.302734" xlink:href="#DejaVuSans-101"/>
     </g>
    </g>
   </g>
  </g>
  <g id="text_19">
   <!-- Latent Space KL-Divergence Trend for Case 13 (steel, slow speed, shallow cut) -->
   <defs>
    <path d="M 18.3125 70.21875 
L 18.3125 54.6875 
L 36.8125 54.6875 
L 36.8125 47.703125 
L 18.3125 47.703125 
L 18.3125 18.015625 
Q 18.3125 11.328125 20.140625 9.421875 
Q 21.96875 7.515625 27.59375 7.515625 
L 36.8125 7.515625 
L 36.8125 0 
L 27.59375 0 
Q 17.1875 0 13.234375 3.875 
Q 9.28125 7.765625 9.28125 18.015625 
L 9.28125 47.703125 
L 2.6875 47.703125 
L 2.6875 54.6875 
L 9.28125 54.6875 
L 9.28125 70.21875 
z
" id="DejaVuSans-116"/>
    <path d="M -0.296875 72.90625 
L 61.375 72.90625 
L 61.375 64.59375 
L 35.5 64.59375 
L 35.5 0 
L 25.59375 0 
L 25.59375 64.59375 
L -0.296875 64.59375 
z
" id="DejaVuSans-84"/>
    <path d="M 45.40625 46.390625 
L 45.40625 75.984375 
L 54.390625 75.984375 
L 54.390625 0 
L 45.40625 0 
L 45.40625 8.203125 
Q 42.578125 3.328125 38.25 0.953125 
Q 33.9375 -1.421875 27.875 -1.421875 
Q 17.96875 -1.421875 11.734375 6.484375 
Q 5.515625 14.40625 5.515625 27.296875 
Q 5.515625 40.1875 11.734375 48.09375 
Q 17.96875 56 27.875 56 
Q 33.9375 56 38.25 53.625 
Q 42.578125 51.265625 45.40625 46.390625 
z
M 14.796875 27.296875 
Q 14.796875 17.390625 18.875 11.75 
Q 22.953125 6.109375 30.078125 6.109375 
Q 37.203125 6.109375 41.296875 11.75 
Q 45.40625 17.390625 45.40625 27.296875 
Q 45.40625 37.203125 41.296875 42.84375 
Q 37.203125 48.484375 30.078125 48.484375 
Q 22.953125 48.484375 18.875 42.84375 
Q 14.796875 37.203125 14.796875 27.296875 
z
" id="DejaVuSans-100"/>
    <path d="M 37.109375 75.984375 
L 37.109375 68.5 
L 28.515625 68.5 
Q 23.6875 68.5 21.796875 66.546875 
Q 19.921875 64.59375 19.921875 59.515625 
L 19.921875 54.6875 
L 34.71875 54.6875 
L 34.71875 47.703125 
L 19.921875 47.703125 
L 19.921875 0 
L 10.890625 0 
L 10.890625 47.703125 
L 2.296875 47.703125 
L 2.296875 54.6875 
L 10.890625 54.6875 
L 10.890625 58.5 
Q 10.890625 67.625 15.140625 71.796875 
Q 19.390625 75.984375 28.609375 75.984375 
z
" id="DejaVuSans-102"/>
    <path d="M 64.40625 67.28125 
L 64.40625 56.890625 
Q 59.421875 61.53125 53.78125 63.8125 
Q 48.140625 66.109375 41.796875 66.109375 
Q 29.296875 66.109375 22.65625 58.46875 
Q 16.015625 50.828125 16.015625 36.375 
Q 16.015625 21.96875 22.65625 14.328125 
Q 29.296875 6.6875 41.796875 6.6875 
Q 48.140625 6.6875 53.78125 8.984375 
Q 59.421875 11.28125 64.40625 15.921875 
L 64.40625 5.609375 
Q 59.234375 2.09375 53.4375 0.328125 
Q 47.65625 -1.421875 41.21875 -1.421875 
Q 24.65625 -1.421875 15.125 8.703125 
Q 5.609375 18.84375 5.609375 36.375 
Q 5.609375 53.953125 15.125 64.078125 
Q 24.65625 74.21875 41.21875 74.21875 
Q 47.75 74.21875 53.53125 72.484375 
Q 59.328125 70.75 64.40625 67.28125 
z
" id="DejaVuSans-67"/>
    <path d="M 44.28125 53.078125 
L 44.28125 44.578125 
Q 40.484375 46.53125 36.375 47.5 
Q 32.28125 48.484375 27.875 48.484375 
Q 21.1875 48.484375 17.84375 46.4375 
Q 14.5 44.390625 14.5 40.28125 
Q 14.5 37.15625 16.890625 35.375 
Q 19.28125 33.59375 26.515625 31.984375 
L 29.59375 31.296875 
Q 39.15625 29.25 43.1875 25.515625 
Q 47.21875 21.78125 47.21875 15.09375 
Q 47.21875 7.46875 41.1875 3.015625 
Q 35.15625 -1.421875 24.609375 -1.421875 
Q 20.21875 -1.421875 15.453125 -0.5625 
Q 10.6875 0.296875 5.421875 2 
L 5.421875 11.28125 
Q 10.40625 8.6875 15.234375 7.390625 
Q 20.0625 6.109375 24.8125 6.109375 
Q 31.15625 6.109375 34.5625 8.28125 
Q 37.984375 10.453125 37.984375 14.40625 
Q 37.984375 18.0625 35.515625 20.015625 
Q 33.0625 21.96875 24.703125 23.78125 
L 21.578125 24.515625 
Q 13.234375 26.265625 9.515625 29.90625 
Q 5.8125 33.546875 5.8125 39.890625 
Q 5.8125 47.609375 11.28125 51.796875 
Q 16.75 56 26.8125 56 
Q 31.78125 56 36.171875 55.265625 
Q 40.578125 54.546875 44.28125 53.078125 
z
" id="DejaVuSans-115"/>
    <path d="M 40.578125 39.3125 
Q 47.65625 37.796875 51.625 33 
Q 55.609375 28.21875 55.609375 21.1875 
Q 55.609375 10.40625 48.1875 4.484375 
Q 40.765625 -1.421875 27.09375 -1.421875 
Q 22.515625 -1.421875 17.65625 -0.515625 
Q 12.796875 0.390625 7.625 2.203125 
L 7.625 11.71875 
Q 11.71875 9.328125 16.59375 8.109375 
Q 21.484375 6.890625 26.8125 6.890625 
Q 36.078125 6.890625 40.9375 10.546875 
Q 45.796875 14.203125 45.796875 21.1875 
Q 45.796875 27.640625 41.28125 31.265625 
Q 36.765625 34.90625 28.71875 34.90625 
L 20.21875 34.90625 
L 20.21875 43.015625 
L 29.109375 43.015625 
Q 36.375 43.015625 40.234375 45.921875 
Q 44.09375 48.828125 44.09375 54.296875 
Q 44.09375 59.90625 40.109375 62.90625 
Q 36.140625 65.921875 28.71875 65.921875 
Q 24.65625 65.921875 20.015625 65.03125 
Q 15.375 64.15625 9.8125 62.3125 
L 9.8125 71.09375 
Q 15.4375 72.65625 20.34375 73.4375 
Q 25.25 74.21875 29.59375 74.21875 
Q 40.828125 74.21875 47.359375 69.109375 
Q 53.90625 64.015625 53.90625 55.328125 
Q 53.90625 49.265625 50.4375 45.09375 
Q 46.96875 40.921875 40.578125 39.3125 
z
" id="DejaVuSans-51"/>
    <path d="M 31 75.875 
Q 24.46875 64.65625 21.28125 53.65625 
Q 18.109375 42.671875 18.109375 31.390625 
Q 18.109375 20.125 21.3125 9.0625 
Q 24.515625 -2 31 -13.1875 
L 23.1875 -13.1875 
Q 15.875 -1.703125 12.234375 9.375 
Q 8.59375 20.453125 8.59375 31.390625 
Q 8.59375 42.28125 12.203125 53.3125 
Q 15.828125 64.359375 23.1875 75.875 
z
" id="DejaVuSans-40"/>
    <path d="M 11.71875 12.40625 
L 22.015625 12.40625 
L 22.015625 4 
L 14.015625 -11.625 
L 7.71875 -11.625 
L 11.71875 4 
z
" id="DejaVuSans-44"/>
    <path d="M 4.203125 54.6875 
L 13.1875 54.6875 
L 24.421875 12.015625 
L 35.59375 54.6875 
L 46.1875 54.6875 
L 57.421875 12.015625 
L 68.609375 54.6875 
L 77.59375 54.6875 
L 63.28125 0 
L 52.6875 0 
L 40.921875 44.828125 
L 29.109375 0 
L 18.5 0 
z
" id="DejaVuSans-119"/>
    <path d="M 54.890625 33.015625 
L 54.890625 0 
L 45.90625 0 
L 45.90625 32.71875 
Q 45.90625 40.484375 42.875 44.328125 
Q 39.84375 48.1875 33.796875 48.1875 
Q 26.515625 48.1875 22.3125 43.546875 
Q 18.109375 38.921875 18.109375 30.90625 
L 18.109375 0 
L 9.078125 0 
L 9.078125 75.984375 
L 18.109375 75.984375 
L 18.109375 46.1875 
Q 21.34375 51.125 25.703125 53.5625 
Q 30.078125 56 35.796875 56 
Q 45.21875 56 50.046875 50.171875 
Q 54.890625 44.34375 54.890625 33.015625 
z
" id="DejaVuSans-104"/>
    <path d="M 8.015625 75.875 
L 15.828125 75.875 
Q 23.140625 64.359375 26.78125 53.3125 
Q 30.421875 42.28125 30.421875 31.390625 
Q 30.421875 20.453125 26.78125 9.375 
Q 23.140625 -1.703125 15.828125 -13.1875 
L 8.015625 -13.1875 
Q 14.5 -2 17.703125 9.0625 
Q 20.90625 20.125 20.90625 31.390625 
Q 20.90625 42.671875 17.703125 53.65625 
Q 14.5 64.65625 8.015625 75.875 
z
" id="DejaVuSans-41"/>
   </defs>
   <g style="fill:#262626;" transform="translate(88.541908 13.524911)scale(0.085 -0.085)">
    <use xlink:href="#DejaVuSans-76"/>
    <use x="55.712891" xlink:href="#DejaVuSans-97"/>
    <use x="116.992188" xlink:href="#DejaVuSans-116"/>
    <use x="156.201172" xlink:href="#DejaVuSans-101"/>
    <use x="217.724609" xlink:href="#DejaVuSans-110"/>
    <use x="281.103516" xlink:href="#DejaVuSans-116"/>
    <use x="320.3125" xlink:href="#DejaVuSans-32"/>
    <use x="352.099609" xlink:href="#DejaVuSans-83"/>
    <use x="415.576172" xlink:href="#DejaVuSans-112"/>
    <use x="479.052734" xlink:href="#DejaVuSans-97"/>
    <use x="540.332031" xlink:href="#DejaVuSans-99"/>
    <use x="595.3125" xlink:href="#DejaVuSans-101"/>
    <use x="656.835938" xlink:href="#DejaVuSans-32"/>
    <use x="688.623047" xlink:href="#DejaVuSans-75"/>
    <use x="754.199219" xlink:href="#DejaVuSans-76"/>
    <use x="809.896484" xlink:href="#DejaVuSans-45"/>
    <use x="845.980469" xlink:href="#DejaVuSans-68"/>
    <use x="922.982422" xlink:href="#DejaVuSans-105"/>
    <use x="950.765625" xlink:href="#DejaVuSans-118"/>
    <use x="1009.945312" xlink:href="#DejaVuSans-101"/>
    <use x="1071.46875" xlink:href="#DejaVuSans-114"/>
    <use x="1112.566406" xlink:href="#DejaVuSans-103"/>
    <use x="1176.042969" xlink:href="#DejaVuSans-101"/>
    <use x="1237.566406" xlink:href="#DejaVuSans-110"/>
    <use x="1300.945312" xlink:href="#DejaVuSans-99"/>
    <use x="1355.925781" xlink:href="#DejaVuSans-101"/>
    <use x="1417.449219" xlink:href="#DejaVuSans-32"/>
    <use x="1449.236328" xlink:href="#DejaVuSans-84"/>
    <use x="1510.101562" xlink:href="#DejaVuSans-114"/>
    <use x="1551.183594" xlink:href="#DejaVuSans-101"/>
    <use x="1612.707031" xlink:href="#DejaVuSans-110"/>
    <use x="1676.085938" xlink:href="#DejaVuSans-100"/>
    <use x="1739.5625" xlink:href="#DejaVuSans-32"/>
    <use x="1771.349609" xlink:href="#DejaVuSans-102"/>
    <use x="1806.554688" xlink:href="#DejaVuSans-111"/>
    <use x="1867.736328" xlink:href="#DejaVuSans-114"/>
    <use x="1908.849609" xlink:href="#DejaVuSans-32"/>
    <use x="1940.636719" xlink:href="#DejaVuSans-67"/>
    <use x="2010.460938" xlink:href="#DejaVuSans-97"/>
    <use x="2071.740234" xlink:href="#DejaVuSans-115"/>
    <use x="2123.839844" xlink:href="#DejaVuSans-101"/>
    <use x="2185.363281" xlink:href="#DejaVuSans-32"/>
    <use x="2217.150391" xlink:href="#DejaVuSans-49"/>
    <use x="2280.773438" xlink:href="#DejaVuSans-51"/>
    <use x="2344.396484" xlink:href="#DejaVuSans-32"/>
    <use x="2376.183594" xlink:href="#DejaVuSans-40"/>
    <use x="2415.197266" xlink:href="#DejaVuSans-115"/>
    <use x="2467.296875" xlink:href="#DejaVuSans-116"/>
    <use x="2506.505859" xlink:href="#DejaVuSans-101"/>
    <use x="2568.029297" xlink:href="#DejaVuSans-101"/>
    <use x="2629.552734" xlink:href="#DejaVuSans-108"/>
    <use x="2657.335938" xlink:href="#DejaVuSans-44"/>
    <use x="2689.123047" xlink:href="#DejaVuSans-32"/>
    <use x="2720.910156" xlink:href="#DejaVuSans-115"/>
    <use x="2773.009766" xlink:href="#DejaVuSans-108"/>
    <use x="2800.792969" xlink:href="#DejaVuSans-111"/>
    <use x="2861.974609" xlink:href="#DejaVuSans-119"/>
    <use x="2943.761719" xlink:href="#DejaVuSans-32"/>
    <use x="2975.548828" xlink:href="#DejaVuSans-115"/>
    <use x="3027.648438" xlink:href="#DejaVuSans-112"/>
    <use x="3091.125" xlink:href="#DejaVuSans-101"/>
    <use x="3152.648438" xlink:href="#DejaVuSans-101"/>
    <use x="3214.171875" xlink:href="#DejaVuSans-100"/>
    <use x="3277.648438" xlink:href="#DejaVuSans-44"/>
    <use x="3309.435547" xlink:href="#DejaVuSans-32"/>
    <use x="3341.222656" xlink:href="#DejaVuSans-115"/>
    <use x="3393.322266" xlink:href="#DejaVuSans-104"/>
    <use x="3456.701172" xlink:href="#DejaVuSans-97"/>
    <use x="3517.980469" xlink:href="#DejaVuSans-108"/>
    <use x="3545.763672" xlink:href="#DejaVuSans-108"/>
    <use x="3573.546875" xlink:href="#DejaVuSans-111"/>
    <use x="3634.728516" xlink:href="#DejaVuSans-119"/>
    <use x="3716.515625" xlink:href="#DejaVuSans-32"/>
    <use x="3748.302734" xlink:href="#DejaVuSans-99"/>
    <use x="3803.283203" xlink:href="#DejaVuSans-117"/>
    <use x="3866.662109" xlink:href="#DejaVuSans-116"/>
    <use x="3905.871094" xlink:href="#DejaVuSans-41"/>
   </g>
  </g>
 </g>
 <defs>
  <clipPath id="pf1c25f0593">
   <rect height="125.754966" width="462.925301" x="42.274219" y="27.427366"/>
  </clipPath>
 </defs>
</svg>
