<?xml version="1.0" encoding="UTF-8"?>
<!-- Created with Inkscape (http://www.inkscape.org/) -->
<svg width="1045.5" height="555.44" version="1.1" viewBox="0 0 1045.5 555.44" xml:space="preserve" xmlns="http://www.w3.org/2000/svg" xmlns:cc="http://creativecommons.org/ns#" xmlns:dc="http://purl.org/dc/elements/1.1/" xmlns:rdf="http://www.w3.org/1999/02/22-rdf-syntax-ns#"><metadata><rdf:RDF><cc:Work rdf:about=""><dc:format>image/svg+xml</dc:format><dc:type rdf:resource="http://purl.org/dc/dcmitype/StillImage"/><dc:title/></cc:Work></rdf:RDF></metadata><defs><clipPath id="clipPath102"><path d="m43.778 82.818h333.62v311.44h-333.62z"/></clipPath><clipPath id="clipPath112"><path d="m43.778 82.818h333.62v311.44h-333.62z"/></clipPath><clipPath id="clipPath236"><path d="m443.3 82.818h333.62v311.44h-333.62z"/></clipPath><clipPath id="clipPath246"><path d="m443.3 82.818h333.62v311.44h-333.62z"/></clipPath></defs><g transform="matrix(1.3333 0 0 -1.3333 0 555.44)"><g><path d="m0 0h784.13v416.58h-784.13z" fill="#fff"/><path d="m43.778 82.818h333.62v311.44h-333.62z" fill="#fff"/><path d="m58.943 82.818v-3.5" stroke="#000" stroke-linejoin="round" stroke-miterlimit="10" stroke-width=".8"/><text transform="matrix(1 0 0 -1 50.99 68.224)" fill="#000000" font-family="'DejaVu Sans'" font-size="10px"><tspan x="0 6.3600001 9.54" y="0">0.0</tspan></text>
<path d="m119.6 82.818v-3.5" stroke="#000" stroke-linejoin="round" stroke-miterlimit="10" stroke-width=".8"/><text transform="matrix(1 0 0 -1 111.65 68.224)" fill="#000000" font-family="'DejaVu Sans'" font-size="10px"><tspan x="0 6.3600001 9.54" y="0">0.2</tspan></text>
<path d="m180.26 82.818v-3.5" stroke="#000" stroke-linejoin="round" stroke-miterlimit="10" stroke-width=".8"/><text transform="matrix(1 0 0 -1 172.31 68.224)" fill="#000000" font-family="'DejaVu Sans'" font-size="10px"><tspan x="0 6.3600001 9.54" y="0">0.4</tspan></text>
<path d="m240.92 82.818v-3.5" stroke="#000" stroke-linejoin="round" stroke-miterlimit="10" stroke-width=".8"/><text transform="matrix(1 0 0 -1 232.97 68.224)" fill="#000000" font-family="'DejaVu Sans'" font-size="10px"><tspan x="0 6.3600001 9.54" y="0">0.6</tspan></text>
<path d="m301.58 82.818v-3.5" stroke="#000" stroke-linejoin="round" stroke-miterlimit="10" stroke-width=".8"/><text transform="matrix(1 0 0 -1 293.63 68.224)" fill="#000000" font-family="'DejaVu Sans'" font-size="10px"><tspan x="0 6.3600001 9.54" y="0">0.8</tspan></text>
<path d="m362.24 82.818v-3.5" stroke="#000" stroke-linejoin="round" stroke-miterlimit="10" stroke-width=".8"/><text transform="matrix(1 0 0 -1 354.29 68.224)" fill="#000000" font-family="'DejaVu Sans'" font-size="10px"><tspan x="0 6.3600001 9.54" y="0">1.0</tspan></text>
<text transform="matrix(1 0 0 -1 195.44 54.552)" fill="#000000" font-family="'DejaVu Sans'" font-size="10px"><tspan x="0 6.9499998 13.1 18.6 24.73 27.51" y="0">Recall</tspan></text>
<path d="m43.778 96.974h-3.5" stroke="#000" stroke-linejoin="round" stroke-miterlimit="10" stroke-width=".8"/><text transform="matrix(1 0 0 -1 20.872 93.177)" fill="#000000" font-family="'DejaVu Sans'" font-size="10px"><tspan x="0 6.3600001 9.54" y="0">0.0</tspan></text>
<path d="m43.778 153.6h-3.5" stroke="#000" stroke-linejoin="round" stroke-miterlimit="10" stroke-width=".8"/><text transform="matrix(1 0 0 -1 20.872 149.8)" fill="#000000" font-family="'DejaVu Sans'" font-size="10px"><tspan x="0 6.3600001 9.54" y="0">0.2</tspan></text>
<path d="m43.778 210.23h-3.5" stroke="#000" stroke-linejoin="round" stroke-miterlimit="10" stroke-width=".8"/><text transform="matrix(1 0 0 -1 20.872 206.43)" fill="#000000" font-family="'DejaVu Sans'" font-size="10px"><tspan x="0 6.3600001 9.54" y="0">0.4</tspan></text>
<path d="m43.778 266.85h-3.5" stroke="#000" stroke-linejoin="round" stroke-miterlimit="10" stroke-width=".8"/><text transform="matrix(1 0 0 -1 20.872 263.05)" fill="#000000" font-family="'DejaVu Sans'" font-size="10px"><tspan x="0 6.3600001 9.54" y="0">0.6</tspan></text>
<path d="m43.778 323.48h-3.5" stroke="#000" stroke-linejoin="round" stroke-miterlimit="10" stroke-width=".8"/><text transform="matrix(1 0 0 -1 20.872 319.68)" fill="#000000" font-family="'DejaVu Sans'" font-size="10px"><tspan x="0 6.3600001 9.54" y="0">0.8</tspan></text>
<path d="m43.778 380.1h-3.5" stroke="#000" stroke-linejoin="round" stroke-miterlimit="10" stroke-width=".8"/><text transform="matrix(1 0 0 -1 20.872 376.3)" fill="#000000" font-family="'DejaVu Sans'" font-size="10px"><tspan x="0 6.3600001 9.54" y="0">1.0</tspan></text>
<text transform="matrix(0 1 1 0 14.794 216.01)" fill="#000000" font-family="'DejaVu Sans'" font-size="10px"><tspan x="0 6.0300002 10.14 16.290001 21.790001 24.57 29.780001 32.560001 38.68" y="0">Precision</tspan></text>
</g><g clip-path="url(#clipPath102)"><path d="m362.24 104.5v0.27785l-1.6047 0.10527v0.23241l-1.6047-0.0322v0.11978l-14.443-0.26362-3.2095-0.0558v0.1082l-11.233-0.29037v0.1244l-6.419-0.0462v0.0831l-4.8142-0.0374v0.29003l-9.6284 0.0611-3.2095-0.0491v0.32848l-3.2095-0.0561v0.1649l-22.466-0.50397v2e-3l-1.6047-0.0553v1.5393l-1.6047-0.0132v0.67357l-27.281-0.66913v0.11545l-1.6047-0.0675v0.10912l-3.2095-0.0579v0.0716l-3.2095-0.0181v0.64273l-11.233-0.42246-9.6284-0.2882-3.2095-0.12358v0.88478l-3.2095 0.10212v0.34078l-1.6047 0.0563v0.62033l-1.6047 0.0369v0.15122l-1.6047 0.0562v0.40979l-3.2095-0.12676v0.32097l-8.0237-0.3703v0.26941l-4.8142 0.13348v0.35312l-1.6047-1e-3v0.32712l-3.2095 0.0884v1.4458l-1.6047 0.0916-4.8142 0.5492-1.6047-0.0275v0.65279l-1.6047 0.15837v1.1716l-1.6047-0.0345-9.6284-0.67567-1.6047-0.0451-6.419-0.79259-1.6047-0.0567-6.419-0.64799-4.8142-0.60404v0.45106l-1.6047-0.12965v0.12808l-1.6047-0.14643v3.4545l-1.6047-0.0361v0.95933l-3.2095-0.54103v0.72914l-6.419-0.94226v0.23418l-3.2095-0.57568v0.31585l-1.6047-0.0137-1.6047-0.37086-1.6047 5e-3 -1.6047-0.13538v0.81479l-4.8142-1.1642v0.53635l-1.6047-0.11866-1.6047 4e-3v2.3594l-3.2095-0.71719v0.16357l-1.6047-0.35182v0.6355l-1.6047-0.40793-3.2095-0.54199v0.31159l-1.6047-0.35372v0.65403l-1.6047-0.41524v0.44213l-1.6047-0.57965-1.6047-0.29612v0.7202l-1.6047-0.35832v0.49506l-3.2095-0.76416-1.6047-0.69108v1.626l-9.6284-5.0579v0.63659l-1.6047-0.81245v0.49497l-1.6047-0.96602v0.67432l-1.6047-1.0229v1.0722l-3.2095-2.1884v0.34475l-1.6047-1.1312v0.16615l-1.6047-1.1773v1.3917l-1.6047-1.288v3.2668l-1.6047-1.6654v4.1636l-1.6047-2.2093v2.2093l-3.2095-5.1764-1.6047-3.6135v1.1235l-3.2095-8.9882v0" fill="none" stroke="#1f253f" stroke-linecap="square" stroke-linejoin="round" stroke-miterlimit="10" stroke-width="2"/></g><g clip-path="url(#clipPath112)"><path d="m58.943 104.62h303.3" fill="none" stroke="#ffa500" stroke-dasharray="7.4, 3.2" stroke-linejoin="round" stroke-miterlimit="10" stroke-width="2"/></g><g fill="none" stroke="#000" stroke-linecap="square" stroke-miterlimit="10" stroke-width=".8"><path d="m43.778 82.818v311.44"/><path d="m377.4 82.818v311.44"/><path d="m43.778 82.818h333.62"/><path d="m43.778 394.26h333.62"/></g><g><text transform="matrix(1 0 0 -1 43.778 9.2781)" fill="#000000" font-family="'DejaVu Sans'" font-size="10px"><tspan x="0 6.0300002 10.14 16.290001 21.790001 24.57 29.780001 32.560001 38.68 45.02 48.630001 55.580002 61.73 67.230003 73.360001 76.139999 78.919998 82.099998 88.940002 93.050003 99.199997 105.33 108.94 116.26 122.6 128.95 135.10001 139.21001 142.82001 149.8 156.14 160.25 166.17 172.32001 175.5 183.88 187.06 193.42 196.60001 202.96001 209.32001" y="0">Precision-Recall Area-Under-Curve = 0.044</tspan></text>
<text transform="matrix(1 0 0 -1 143.63 400.26)" fill="#000000" font-family="'DejaVu Sans'" font-size="12px"><tspan x="0 7.2360001 12.168 19.548 26.148001 29.483999 35.736 39.071999 46.416 54.023998 58.355999 66.695999 74.075996 80.676003 88.031998 91.367996 94.704002 98.519997 106.896 114.504 119.436 126.54" y="0">Precision-Recall Curve</tspan></text>
<path d="m267.9 356.91h102.5c1.3333 0 2 0.66666 2 2v28.344c0 1.3333-0.66666 2-2 2h-102.5c-1.3333 0-2-0.66667-2-2v-28.344c0-1.3333 0.66667-2 2-2z" fill="#fff" fill-opacity=".8" stroke="#ccc" stroke-miterlimit="10" stroke-opacity=".8"/></g><path d="m269.9 381.16h20" fill="none" stroke="#1f253f" stroke-linecap="square" stroke-linejoin="round" stroke-miterlimit="10" stroke-width="2"/><text transform="matrix(1 0 0 -1 297.9 377.66)" fill="#000000" font-family="'DejaVu Sans'" font-size="10px"><tspan x="0 6.8600001 13.01 18.219999 22.139999 25.32 35.060001 41.18 47.529999 53.68" y="0">Best model</tspan></text>
<path d="m269.9 366.49h20" fill="none" stroke="#ffa500" stroke-dasharray="7.4, 3.2" stroke-linejoin="round" stroke-miterlimit="10" stroke-width="2"/><g><text transform="matrix(1 0 0 -1 297.9 362.99)" fill="#000000" font-family="'DejaVu Sans'" font-size="10px"><tspan x="0 7.48 13.6 16.780001 21.99 27.780001 30.559999 33.34 36.119999 39.299999 49.040001 55.16 61.509998 67.660004" y="0">No skill model</tspan></text>
<path d="m443.3 82.818h333.62v311.44h-333.62z" fill="#fff"/><path d="m458.47 82.818v-3.5" stroke="#000" stroke-linejoin="round" stroke-miterlimit="10" stroke-width=".8"/><text transform="matrix(1 0 0 -1 450.51 68.224)" fill="#000000" font-family="'DejaVu Sans'" font-size="10px"><tspan x="0 6.3600001 9.54" y="0">0.0</tspan></text>
<path d="m519.13 82.818v-3.5" stroke="#000" stroke-linejoin="round" stroke-miterlimit="10" stroke-width=".8"/><text transform="matrix(1 0 0 -1 511.17 68.224)" fill="#000000" font-family="'DejaVu Sans'" font-size="10px"><tspan x="0 6.3600001 9.54" y="0">0.2</tspan></text>
<path d="m579.79 82.818v-3.5" stroke="#000" stroke-linejoin="round" stroke-miterlimit="10" stroke-width=".8"/><text transform="matrix(1 0 0 -1 571.83 68.224)" fill="#000000" font-family="'DejaVu Sans'" font-size="10px"><tspan x="0 6.3600001 9.54" y="0">0.4</tspan></text>
<path d="m640.45 82.818v-3.5" stroke="#000" stroke-linejoin="round" stroke-miterlimit="10" stroke-width=".8"/><text transform="matrix(1 0 0 -1 632.49 68.224)" fill="#000000" font-family="'DejaVu Sans'" font-size="10px"><tspan x="0 6.3600001 9.54" y="0">0.6</tspan></text>
<path d="m701.1 82.818v-3.5" stroke="#000" stroke-linejoin="round" stroke-miterlimit="10" stroke-width=".8"/><text transform="matrix(1 0 0 -1 693.15 68.224)" fill="#000000" font-family="'DejaVu Sans'" font-size="10px"><tspan x="0 6.3600001 9.54" y="0">0.8</tspan></text>
<path d="m761.76 82.818v-3.5" stroke="#000" stroke-linejoin="round" stroke-miterlimit="10" stroke-width=".8"/><text transform="matrix(1 0 0 -1 753.81 68.224)" fill="#000000" font-family="'DejaVu Sans'" font-size="10px"><tspan x="0 6.3600001 9.54" y="0">1.0</tspan></text>
<text transform="matrix(1 0 0 -1 562.87 54.552)" fill="#000000" font-family="'DejaVu Sans'" font-size="10px"><tspan x="0 5.75 11.88 14.66 19.870001 26.02 29.200001 35.23 41.349998 46.560001 49.34 53.259998 56.040001 61.959999 68.110001 71.290001 78.239998 84.370003 88.290001" y="0">False Positive Rate</tspan></text>
<path d="m443.3 96.974h-3.5" stroke="#000" stroke-linejoin="round" stroke-miterlimit="10" stroke-width=".8"/><text transform="matrix(1 0 0 -1 420.4 93.177)" fill="#000000" font-family="'DejaVu Sans'" font-size="10px"><tspan x="0 6.3600001 9.54" y="0">0.0</tspan></text>
<path d="m443.3 153.6h-3.5" stroke="#000" stroke-linejoin="round" stroke-miterlimit="10" stroke-width=".8"/><text transform="matrix(1 0 0 -1 420.4 149.8)" fill="#000000" font-family="'DejaVu Sans'" font-size="10px"><tspan x="0 6.3600001 9.54" y="0">0.2</tspan></text>
<path d="m443.3 210.23h-3.5" stroke="#000" stroke-linejoin="round" stroke-miterlimit="10" stroke-width=".8"/><text transform="matrix(1 0 0 -1 420.4 206.43)" fill="#000000" font-family="'DejaVu Sans'" font-size="10px"><tspan x="0 6.3600001 9.54" y="0">0.4</tspan></text>
<path d="m443.3 266.85h-3.5" stroke="#000" stroke-linejoin="round" stroke-miterlimit="10" stroke-width=".8"/><text transform="matrix(1 0 0 -1 420.4 263.05)" fill="#000000" font-family="'DejaVu Sans'" font-size="10px"><tspan x="0 6.3600001 9.54" y="0">0.6</tspan></text>
<path d="m443.3 323.48h-3.5" stroke="#000" stroke-linejoin="round" stroke-miterlimit="10" stroke-width=".8"/><text transform="matrix(1 0 0 -1 420.4 319.68)" fill="#000000" font-family="'DejaVu Sans'" font-size="10px"><tspan x="0 6.3600001 9.54" y="0">0.8</tspan></text>
<path d="m443.3 380.1h-3.5" stroke="#000" stroke-linejoin="round" stroke-miterlimit="10" stroke-width=".8"/><text transform="matrix(1 0 0 -1 420.4 376.3)" fill="#000000" font-family="'DejaVu Sans'" font-size="10px"><tspan x="0 6.3600001 9.54" y="0">1.0</tspan></text>
<text transform="matrix(0 1 1 0 414.32 192.95)" fill="#000000" font-family="'DejaVu Sans'" font-size="10px"><tspan x="0 6.1100001 10.22 16.559999 22.709999 25.889999 31.92 38.040001 43.25 46.029999 49.950001 52.73 58.650002 64.800003 67.980003 74.93 81.059998 84.980003" y="0">True Positive Rate</tspan></text>
</g><g clip-path="url(#clipPath236)"><path d="m761.76 380.1h-11.09l-1.9726-1.498h-11.967l-0.35068-1.498h-4.1643l-0.0438-1.498h-1.4027l-0.39452-1.498h-1.1397l-0.43835-1.498-0.26301-1.498-0.35068-5.9921-0.56986-2.996h-0.56985l-0.21918-1.498h-3.726v0l-0.17534-1.498h-0.21917v0l-0.0438-5.9921h-0.0438l-0.26301-2.9961h-4.252l-0.6137-1.498h-2.6301l-0.56985-2.9961-0.78904-1.498h-2.7616l-0.70136-2.996h-2.1918l-0.48219-1.498h-9.1177l-1.9726-1.498h-1.6657l-1.6219-1.498h-1.8849l-5.041-8.9882h-9.0739l-1.3589-2.9961h-4.2958l-2.5863-5.9921-1.0082-1.498h-1.0959l-0.39452-1.498h-0.56985l-0.30685-1.498-0.43835-1.498-0.30685-2.9961h-0.43835l-0.0438-5.9921h-0.0438l-0.0438-1.498h-34.016l-1.0082-1.498h-11.616l-0.92054-2.996h-1.2712l-1.052-4.4941-1.052-1.498-1.0082-5.9921-0.96437-2.996-1.5781-1.498-1.1397-2.9961-0.78903-2.996h-1.8411l-0.17534-1.498h-1.7096l-0.35068-1.498h-0.78903l-0.43836-1.498h-1.0959l-0.70137-1.498h-0.70136l-0.78903-1.498h-9.03l-2.0602-5.9921-0.56985-4.4941-0.65753-2.996-1.0959-2.9961-0.7452-1.498-0.96437-1.498-0.83287-2.9961h-10.959l-3.4191-2.9961h-3.5945l-1.6657-1.498h-5.8739l-1.3589-1.498h-1.3151l-1.4904-1.498h-3.3315l-0.96438-2.996h-2.4548l-1.0959-2.9961-1.0082-4.4941h-1.9726l-1.0959-1.498-0.7452-1.498-1.0082-1.498h-3.2876l-0.92054-1.498h-2.0164l-2.3233-2.996h-7.5396l-1.2274-1.498-1.7534-1.498-1.5781-1.498-1.4027-1.498-0.65753-1.498h-2.5424l-1.3151-1.498h-3.9452l-0.56986-1.498-1.1397-5.9921-0.92054-2.996-0.56986-1.498-0.43835-5.9921-0.56986-1.498-1.0082-5.9921-0.43836-4.4941h-1.4466l-0.39451-1.498h-0.39452l-0.35068-1.498h-8.5479l-0.56985-1.498h-1.7972l-0.26302-2.9961h-1.2712l-0.52603-4.4941-0.35068-1.498h-0.39451l-0.30685-2.996h-0.52602l-0.61369-1.498-0.0438-1.498-0.65753-1.498-0.43835-1.498h-1.2274l-0.21918-4.4941h-0.78903l-0.48219-1.498-0.65753-1.498h-2.8493l-0.39452-2.9961h-0.17534v0l-0.21917-1.498h-0.65753l-0.17534-1.498-0.65753-2.996h-0.30685l-0.26301-1.498h-0.61369l-0.21917-1.498h-0.39452l-0.0877-1.498-0.35068-1.498h-0.61369l-0.30685-1.498h-0.39452l-0.61369-2.9961-0.17534-1.498h-1.0959l-0.26301-8.9882h-0.52602l-0.13151-1.498h-0.39451l-0.13151-1.498h-0.43835l-0.0877-1.498h-0.7452l-0.1315-2.996h-0.26301l-0.0877-1.498h-0.1315l-0.17534-1.498h-0.96437l-0.13151-1.498h-1.8411l-0.1315-1.498h-1.4904l-0.17534-1.498v0h-0.52602l-0.13151-1.498-0.26301-1.498-0.0438-1.498h-0.39452v-1.498h-0.17531v-1.498h-2.4548v0" fill="none" stroke="#1f253f" stroke-linecap="square" stroke-linejoin="round" stroke-miterlimit="10" stroke-width="2"/></g><g clip-path="url(#clipPath246)"><path d="m458.47 96.974 303.3 283.13" fill="none" stroke="#ffa500" stroke-dasharray="7.4, 3.2" stroke-linejoin="round" stroke-miterlimit="10" stroke-width="2"/></g><g fill="none" stroke="#000" stroke-linecap="square" stroke-miterlimit="10" stroke-width=".8"><path d="m443.3 82.818v311.44"/><path d="m776.93 82.818v311.44"/><path d="m443.3 82.818h333.62"/><path d="m443.3 394.26h333.62"/></g><text transform="matrix(1 0 0 -1 443.3 9.2781)" fill="#000000" font-family="'DejaVu Sans'" font-size="10px"><tspan x="0 6.9499998 14.82 21.799999 24.98 31.82 35.93 42.080002 48.209999 51.82 59.139999 65.480003 71.830002 77.980003 82.089996 85.699997 92.68 99.019997 103.13 109.05 115.2 118.38 126.76 129.94 136.3 139.48 145.84 152.2" y="0">ROC Area-Under-Curve = 0.617</tspan></text>
<text transform="matrix(1 0 0 -1 577.41 400.26)" fill="#000000" font-family="'DejaVu Sans'" font-size="12px"><tspan x="0 8.3400002 17.784 26.16 29.976 38.352001 45.959999 50.891998 57.995998" y="0">ROC Curve</tspan></text>
</g></svg>
