<?xml version="1.0" encoding="UTF-8"?>
<!-- Created with Inkscape (http://www.inkscape.org/) -->
<svg width="853.47" height="402.95" version="1.1" viewBox="0 0 853.47 402.95" xml:space="preserve" xmlns="http://www.w3.org/2000/svg" xmlns:cc="http://creativecommons.org/ns#" xmlns:dc="http://purl.org/dc/elements/1.1/" xmlns:rdf="http://www.w3.org/1999/02/22-rdf-syntax-ns#"><metadata><rdf:RDF><cc:Work rdf:about=""><dc:format>image/svg+xml</dc:format><dc:type rdf:resource="http://purl.org/dc/dcmitype/StillImage"/><dc:title/></cc:Work></rdf:RDF></metadata><defs><clipPath id="clipPath22"><path d="m47.591 7.2h558v271.8h-558z"/></clipPath><clipPath id="clipPath62"><path d="m47.591 7.2h558v271.8h-558z"/></clipPath><clipPath id="clipPath72"><path d="m47.591 7.2h558v271.8h-558z"/></clipPath><clipPath id="clipPath82"><path d="m47.591 7.2h558v271.8h-558z"/></clipPath><clipPath id="clipPath92"><path d="m47.591 7.2h558v271.8h-558z"/></clipPath><clipPath id="clipPath102"><path d="m47.591 7.2h558v271.8h-558z"/></clipPath><clipPath id="clipPath112"><path d="m47.591 7.2h558v271.8h-558z"/></clipPath><clipPath><path d="m47.591 7.2h558v271.8h-558z"/></clipPath><clipPath><path d="m47.591 7.2h558v271.8h-558z"/></clipPath><clipPath><path d="m47.591 7.2h558v271.8h-558z"/></clipPath><clipPath><path d="m47.591 7.2h558v271.8h-558z"/></clipPath><clipPath><path d="m47.591 7.2h558v271.8h-558z"/></clipPath><clipPath><path d="m47.591 7.2h558v271.8h-558z"/></clipPath></defs><g transform="matrix(1.3333 0 0 -1.3333 0 402.95)"><path d="m0 0h640.1v302.22h-640.1z" fill="#fff"/><path d="m47.591 7.2h558v271.8h-558z" fill="#fff"/><g clip-path="url(#clipPath22)"><path d="m47.591 7.2v271.8" fill="none" stroke="#ccc" stroke-linecap="round" stroke-linejoin="round" stroke-miterlimit="10" stroke-opacity=".7"/></g><g fill="#262626" font-family="'DejaVu Sans'"><g font-size="12.1px"><text transform="matrix(1 0 0 -1 30.388 251.76)"><tspan x="0" y="0">5</tspan></text>
<text transform="matrix(1 0 0 -1 30.388 206.46)"><tspan x="0" y="0">2</tspan></text>
<text transform="matrix(1 0 0 -1 30.388 161.16)"><tspan x="0" y="0">4</tspan></text>
<text transform="matrix(1 0 0 -1 30.388 115.86)"><tspan x="0" y="0">6</tspan></text>
<text transform="matrix(1 0 0 -1 30.388 70.556)"><tspan x="0" y="0">3</tspan></text>
<text transform="matrix(1 0 0 -1 23.966 25.256)"><tspan x="0 7.4173002 10.7811" y="0">all</tspan></text>
</g><text transform="matrix(0 1 1 0 17.216 88.217)" font-size="13.2px"><tspan x="0 8.382 16.750799 25.132799 29.898001 39.111599 47.4804 52.6548 56.852402 66.725998 75.094803 87.951599 96.333603 104.4516" y="0">Sub-Cut Number</tspan></text>
</g><g clip-path="url(#clipPath62)"><path d="m47.591 274.47h531.43v-36.24h-531.43z" fill="#394a56" stroke="#fff" stroke-miterlimit="10"/></g><g clip-path="url(#clipPath72)"><path d="m47.591 229.17h468.6v-36.24h-468.6z" fill="#3f617a" stroke="#fff" stroke-miterlimit="10"/></g><g clip-path="url(#clipPath82)"><path d="m47.591 183.87h382.21v-36.24h-382.21z" fill="#45789d" stroke="#fff" stroke-miterlimit="10"/></g><g clip-path="url(#clipPath92)"><path d="m47.591 138.57h342.94v-36.24h-342.94z" fill="#588fb6" stroke="#fff" stroke-miterlimit="10"/></g><g clip-path="url(#clipPath102)"><path d="m47.591 93.27h304.98v-36.24h-304.98z" fill="#76a4c3" stroke="#fff" stroke-miterlimit="10"/></g><g clip-path="url(#clipPath112)"><path d="m47.591 47.97h195.03v-36.24h-195.03z" fill="#95b9d1" stroke="#fff" stroke-miterlimit="10"/></g><g fill="#262626" font-family="'DejaVu Sans'"><g font-size="12px" font-weight="bold"><text transform="matrix(1 0 0 -1 594.96 253.04)"><tspan x="0 8.3520002 12.912 21.264 29.615999" y="0">0.406</tspan></text>
<text transform="matrix(1 0 0 -1 532.13 207.74)"><tspan x="0 8.3520002 12.912 21.264 29.615999" y="0">0.358</tspan></text>
<text transform="matrix(1 0 0 -1 445.74 162.44)"><tspan x="0 8.3520002 12.912 21.264 29.615999" y="0">0.292</tspan></text>
<text transform="matrix(1 0 0 -1 406.48 117.14)"><tspan x="0 8.3520002 12.912 21.264 29.615999" y="0">0.262</tspan></text>
<text transform="matrix(1 0 0 -1 368.52 71.838)"><tspan x="0 8.3520002 12.912 21.264 29.615999" y="0">0.233</tspan></text>
<text transform="matrix(1 0 0 -1 258.57 26.538)"><tspan x="0 8.3520002 12.912 21.264 29.615999" y="0">0.149</tspan></text>
</g><text transform="matrix(1 0 0 -1 47.591 285)" font-size="13.2px"><tspan x="0 7.9596 17.1336 21.8988 30.927601 40.59 49.8036 54.001202 62.383202 69.643204 77.721603 83.146797 91.264801 95.462402 99.132004 107.5008 111.6984 116.8728 125.2416 133.3596 137.55721 144.90961 153.00121 158.1756 166.29359 174.6624 179.83681 184.03439 192.4164 200.7984 208.89 216.14999 224.26801 228.46561 233.112 241.1904 246.6156 250.8132 255.98759 264.35641 272.4744 276.672 288.0636 296.142 303.0192 308.1936 312.3912 321.6048 329.6832 342.54001 355.39679 363.47519 371.84399 376.0416 387.4332 395.52481 403.89359 412.26239 416.90881 425.0004 432.26041 437.43481 445.80359 451.22879 459.3468 467.72879 471.92639 479.88599 487.9776 493.4028" y="0">PR-AUC Score in the Latent Space for the Most Common Manufactured Part</tspan></text>
</g></g></svg>
